<?xml version="1.0" standalone="no"?>
<!DOCTYPE svg PUBLIC "-//W3C//DTD SVG 1.1//EN" "http://www.w3.org/Graphics/SVG/1.1/DTD/svg11.dtd" >
<svg xmlns="http://www.w3.org/2000/svg">
<metadata>Generated by IcoMoon</metadata>
<defs>
<font id="Skeleticons" horiz-adv-x="1024">
<font-face units-per-em="1024" ascent="921.6" descent="-102.4" />
<missing-glyph horiz-adv-x="1024" />
<glyph unicode="&#x20;" horiz-adv-x="512" d="" />
<glyph unicode="&#xe901;" glyph-name="home2" d="M1024 305.556l-512 397.426-512-397.428v162.038l512 397.426 512-397.428zM896 320v-384h-256v256h-256v-256h-256v384l384 288z" />
<glyph unicode="&#xe910;" glyph-name="pencil3" d="M762.238 896c-10.208 0-20.17-1.138-29.78-3.542l-572.458-572.458-160-448 447.666 160 572.792 572.458c29.598 118.392-132.442 291.542-258.22 291.542zM417.618 126.382l-163.392 163.392 480 480 163.534-163.532-480.142-479.86z" />
<glyph unicode="&#xe913;" glyph-name="pencil6" d="M384 256l128 64 448 448-64 64-448-448-64-128zM289.3 28.902c-31.632 66.728-65.666 100.762-132.396 132.394l99.096 272.792 128 77.912 384 384h-192l-384-384-192-640 640 192 384 384v192l-384-384-77.912-128z" />
<glyph unicode="&#xe928;" glyph-name="brush" d="M220.798-127.484c-0.010 0-0.016 0-0.028 0-118.754 0.012-205.070 67.562-208.686 70.438-10.65 8.468-14.78 22.748-10.294 35.596 4.484 12.844 16.604 21.45 30.21 21.45 95.336 0 117.642 51.26 145.88 116.154 27.112 62.304 60.852 139.846 174.14 139.846 42.726 0 82.9-16.642 113.118-46.864 30.22-30.22 46.862-70.4 46.862-113.136 0-42.738-16.642-82.918-46.864-113.136-73.22-73.222-155.43-110.348-244.338-110.348zM1002.344 879.924c-26.538 23.452-67.062 20.95-90.516-5.588l-484.156-547.878c-2.848-3.27-5.96-7.208-8.462-10.878-4.23-6.206-7.734-12.692-10.542-19.356 33.846-9.524 64.868-27.6 90.414-53.146 25.7-25.7 43.842-56.942 53.318-91.030 19.064 7.916 36.13 21.254 48.624 39.582l411.844 604.122c17.98 26.314 13.978 62.522-10.524 84.172z" />
<glyph unicode="&#xe92f;" glyph-name="bucket2" d="M876.542 765.438c-35.15 42.002-82.188 74.256-139.804 95.862-61.402 23.026-137.016 34.7-224.738 34.7-87.724 0-163.336-11.674-224.736-34.7-57.62-21.606-104.656-53.86-139.806-95.862-56.938-68.042-83.458-158.742-83.458-285.438 0-17.672 14.328-32 32-32s32 14.328 32 32c0 110.836 21.78 188.486 68.542 244.366 28.362 33.894 65.388 59.084 113.194 77.010 54.19 20.32 122.242 30.624 202.264 30.624 80.024 0 148.074-10.304 202.264-30.624 47.806-17.926 84.832-43.116 113.196-77.010 46.76-55.88 68.54-133.53 68.54-244.366 0-17.672 14.326-32 32-32s32 14.328 32 32c0 126.696-26.52 217.396-83.458 285.438zM848.976 534.31c-19.946 8.574-47.652 16.12-82.35 22.428-68.316 12.422-158.744 19.262-254.626 19.262s-186.31-6.84-254.626-19.262c-34.7-6.308-62.406-13.854-82.35-22.428-31.202-13.412-47.024-31.686-47.024-54.31 0-2.978 0.292-5.876 0.838-8.7l63.22-505.758c2.148-44.99 63.216-63.782 109.354-74.034 56.608-12.58 131.396-19.508 210.588-19.508 79.194 0 153.98 6.928 210.588 19.508 46.138 10.252 107.208 29.042 109.354 74.034l63.218 505.75c0.546 2.828 0.84 5.728 0.84 8.708 0 22.624-15.822 40.898-47.024 54.31zM733.514 462.618c-61.684-9.426-140.352-14.618-221.514-14.618-81.164 0-159.832 5.192-221.512 14.618-38.482 5.88-62.976 12.196-78.298 17.382 15.322 5.186 39.816 11.502 78.298 17.382 61.68 9.426 140.348 14.618 221.512 14.618 81.162 0 159.83-5.192 221.514-14.618 38.48-5.88 62.974-12.196 78.296-17.382-15.322-5.186-39.816-11.502-78.296-17.382z" />
<glyph unicode="&#xe934;" glyph-name="droplet" d="M864.626 422.838c-65.754 183.44-205.11 348.15-352.626 473.162-147.516-125.012-286.87-289.722-352.626-473.162-40.664-113.436-44.682-236.562 12.584-345.4 65.846-125.14 198.632-205.438 340.042-205.438s274.196 80.298 340.040 205.44c57.27 108.838 53.25 231.962 12.586 345.398zM738.764 137.044c-43.802-83.252-132.812-137.044-226.764-137.044-55.12 0-108.524 18.536-152.112 50.652 13.242-1.724 26.632-2.652 40.112-2.652 117.426 0 228.668 67.214 283.402 171.242 44.878 85.292 40.978 173.848 23.882 244.338 14.558-28.15 26.906-56.198 36.848-83.932 22.606-63.062 40.024-156.34-5.368-242.604z" />
<glyph unicode="&#xe938;" glyph-name="paint-format" d="M1024 320v384h-192v64c0 35.2-28.8 64-64 64h-704c-35.2 0-64-28.8-64-64v-192c0-35.2 28.8-64 64-64h704c35.2 0 64 28.8 64 64v64h128v-256h-576v-128h-32c-17.674 0-32-14.326-32-32v-320c0-17.674 14.326-32 32-32h128c17.674 0 32 14.326 32 32v320c0 17.674-14.326 32-32 32h-32v64h576zM768 704h-704v64h704v-64z" />
<glyph unicode="&#xe93c;" glyph-name="image2" d="M959.884 768c0.040-0.034 0.082-0.076 0.116-0.116v-767.77c-0.034-0.040-0.076-0.082-0.116-0.116h-895.77c-0.040 0.034-0.082 0.076-0.114 0.116v767.772c0.034 0.040 0.076 0.082 0.114 0.114h895.77zM960 832h-896c-35.2 0-64-28.8-64-64v-768c0-35.2 28.8-64 64-64h896c35.2 0 64 28.8 64 64v768c0 35.2-28.8 64-64 64v0zM832 608c0-53.020-42.98-96-96-96s-96 42.98-96 96 42.98 96 96 96 96-42.98 96-96zM896 64h-768v128l224 384 256-320h64l224 192z" />
<glyph unicode="&#xe93e;" glyph-name="images2" horiz-adv-x="1152" d="M1088 768h-64v64c0 35.2-28.8 64-64 64h-896c-35.2 0-64-28.8-64-64v-768c0-35.2 28.8-64 64-64h64v-64c0-35.2 28.8-64 64-64h896c35.2 0 64 28.8 64 64v768c0 35.2-28.8 64-64 64zM128 704v-640h-63.886c-0.040 0.034-0.082 0.076-0.114 0.116v767.77c0.034 0.040 0.076 0.082 0.114 0.114h895.77c0.040-0.034 0.082-0.076 0.116-0.116v-63.884h-768c-35.2 0-64-28.8-64-64v0zM1088-63.884c-0.034-0.040-0.076-0.082-0.116-0.116h-895.77c-0.040 0.034-0.082 0.076-0.114 0.116v767.77c0.034 0.040 0.076 0.082 0.114 0.114h895.77c0.040-0.034 0.082-0.076 0.116-0.116v-767.768zM960 544c0-53.020-42.98-96-96-96s-96 42.98-96 96 42.98 96 96 96 96-42.98 96-96zM1024 0h-768v128l224 384 256-320h64l224 192z" />
<glyph unicode="&#xe941;" glyph-name="image4" d="M864 512l-224-224-192 192-320-320v-96h768v448zM928 768c17.346 0 32-14.654 32-32v-704c0-17.346-14.654-32-32-32h-832c-17.346 0-32 14.654-32 32v704c0 17.346 14.654 32 32 32h832zM928 832h-832c-52.8 0-96-43.2-96-96v-704c0-52.8 43.2-96 96-96h832c52.8 0 96 43.2 96 96v704c0 52.8-43.2 96-96 96v0z" />
<glyph unicode="&#xe944;" glyph-name="camera" d="M304 288c0-114.876 93.124-208 208-208s208 93.124 208 208-93.124 208-208 208-208-93.124-208-208zM960 640h-224c-16 64-32 128-96 128h-256c-64 0-80-64-96-128h-224c-35.2 0-64-28.8-64-64v-576c0-35.2 28.8-64 64-64h896c35.2 0 64 28.8 64 64v576c0 35.2-28.8 64-64 64zM512 4c-156.85 0-284 127.148-284 284 0 156.85 127.15 284 284 284 156.852 0 284-127.15 284-284 0-156.852-127.146-284-284-284zM960 448h-128v64h128v-64z" />
<glyph unicode="&#xe945;" glyph-name="camera2" d="M960 576h-192c-5.482 0-15.236 6.028-17.69 10.932l-35.378 70.756c-13.202 26.402-45.414 46.312-74.932 46.312h-256c-29.518 0-61.732-19.91-74.932-46.31l-35.378-70.756c-2.454-4.906-12.206-10.934-17.69-10.934v32c0 17.672-14.328 32-32 32h-128c-17.672 0-32-14.328-32-32v-32c-35.29 0-64-28.71-64-64v-576c0-35.29 28.71-64 64-64h896c35.29 0 64 28.71 64 64v576c0 35.29-28.71 64-64 64zM64-64v576h192c29.518 0 61.732 19.91 74.932 46.31l35.378 70.756c2.454 4.904 12.206 10.932 17.69 10.932h256c5.482 0 15.236-6.028 17.69-10.932l35.378-70.756c13.202-26.4 45.414-46.31 74.932-46.31h192l0.006-576h-896.006zM512 520c-145.57 0-264-118.43-264-264s118.43-264 264-264 264 118.43 264 264-118.43 264-264 264zM512 58c-109.178 0-198 88.822-198 198s88.822 198 198 198 198-88.822 198-198-88.822-198-198-198zM640 256c0-70.692-57.308-128-128-128s-128 57.308-128 128c0 70.692 57.308 128 128 128s128-57.308 128-128zM832 448h64v-64h-64v64z" />
<glyph unicode="&#xe947;" glyph-name="shutter" d="M327.25 448l255.806 443.068c-23.228 3.226-46.94 4.932-71.056 4.932-139.708 0-266.322-55.982-358.702-146.706l173.952-301.294zM475.052 576h511.692c-59.172 146.166-183.862 258.776-337.672 301.414l-174.020-301.414zM364.2 256l-255.798 443.056c-67.916-86.878-108.402-196.236-108.402-315.056 0-44.2 5.6-87.088 16.13-128h348.070zM659.802 512l255.798-443.056c67.914 86.878 108.4 196.236 108.4 315.056 0 44.198-5.602 87.088-16.13 128h-348.068zM548.948 192h-511.692c59.172-146.166 183.862-258.776 337.67-301.414l174.022 301.414zM696.75 320.002l-255.806-443.070c23.228-3.224 46.942-4.932 71.056-4.932 139.708 0 266.324 55.98 358.704 146.706l-173.954 301.296z" />
<glyph unicode="&#xe94e;" glyph-name="music5" d="M960 896h64v-736c0-88.366-100.29-160-224-160s-224 71.634-224 160c0 88.368 100.29 160 224 160 62.684 0 119.342-18.4 160-48.040v368.040l-512-113.778v-494.222c0-88.366-100.288-160-224-160s-224 71.634-224 160c0 88.368 100.288 160 224 160 62.684 0 119.342-18.4 160-48.040v624.040l576 128z" />
<glyph unicode="&#xe954;" glyph-name="guitar" d="M880 640l144 128c-12.076 64.668-63.332 115.924-128 128l-128-144v-34.218l-181.47-181.47c-94.068 76.834-159.122 66.336-201.35 31.59-40.98-33.71-56.29-100.524-78.962-120.486-45.792-40.304-158.464 0.152-254.392-104.234-111.002-120.796-23.41-249.582 73.182-346.174 96.59-96.588 225.378-184.184 346.174-73.184 104.388 95.928 63.908 208.624 104.21 254.414 19.96 22.674 86.796 37.958 120.51 78.94 34.742 42.228 45.24 107.284-31.592 201.352l181.472 181.47h34.218zM293.13 37.13l-128 128 53.74 53.738 128-128-53.74-53.738zM480 256c-53.020 0-96 42.98-96 96s42.98 96 96 96 96-42.98 96-96-42.98-96-96-96z" />
<glyph unicode="&#xe95e;" glyph-name="film" d="M0 896v-1024h1024v1024h-1024zM640 832h128v-128h-128v128zM448 832h128v-128h-128v128zM256 832h128v-128h-128v128zM64 832h128v-128h-128v128zM64 640h384v-512h-384v512zM192-64h-128v128h128v-128zM384-64h-128v128h128v-128zM576-64h-128v128h128v-128zM768-64h-128v128h128v-128zM960-64h-128v128h128v-128zM960 128h-448v512h448v-512zM960 704h-128v128h128v-128z" />
<glyph unicode="&#xe960;" glyph-name="film3" d="M0 768v-768h1024v768h-1024zM192 64h-128v128h128v-128zM192 320h-128v128h128v-128zM192 576h-128v128h128v-128zM768 64h-512v640h512v-640zM960 64h-128v128h128v-128zM960 320h-128v128h128v-128zM960 576h-128v128h128v-128z" />
<glyph unicode="&#xe961;" glyph-name="film4" d="M0 768v-768h1024v768h-1024zM192 64h-128v128h128v-128zM192 320h-128v128h128v-128zM192 576h-128v128h128v-128zM768 64h-512v640h512v-640zM960 64h-128v128h128v-128zM960 320h-128v128h128v-128zM960 576h-128v128h128v-128zM384 576v-384l256 192z" />
<glyph unicode="&#xe963;" glyph-name="video-camera2" d="M978.84 639.748c-10.588 0-21.458-3.722-31.436-10.766l-179.404-126.614v105.632c0 52.8-43.2 96-96 96h-576c-52.8 0-96-43.2-96-96v-448c0-52.8 43.2-96 96-96h576c52.8 0 96 43.2 96 96v105.63l179.402-126.614c9.978-7.042 20.848-10.764 31.434-10.766 0.002 0 0.002 0 0.006 0 14.088 0 26.954 6.496 35.292 17.822 6.456 8.77 9.868 20.054 9.868 32.636v410.582c-0.002 33.126-22.72 50.458-45.162 50.458z" />
<glyph unicode="&#xe966;" glyph-name="video-camera4" d="M978.84 639.748c-10.588 0-21.458-3.722-31.436-10.766l-179.404-126.614v105.632c0 52.8-43.2 96-96 96h-576c-52.8 0-96-43.2-96-96v-448c0-52.8 43.2-96 96-96h576c52.8 0 96 43.2 96 96v105.63l179.402-126.614c9.978-7.042 20.848-10.764 31.434-10.766 0.002 0 0.002 0 0.006 0 14.088 0 26.954 6.496 35.292 17.822 6.456 8.77 9.868 20.054 9.868 32.636v410.582c-0.002 33.126-22.72 50.458-45.162 50.458zM960 208.46l-158.042 111.54h-97.958v-160c0-17.346-14.654-32-32-32h-576c-17.346 0-32 14.654-32 32v448c0 17.346 14.654 32 32 32h576c17.346 0 32-14.654 32-32v-160h97.958l158.042 111.54v-351.080z" />
<glyph unicode="&#xe979;" glyph-name="bullhorn" d="M1024 466.744c0 200.926-58.792 363.938-131.482 365.226 0.292 0.006 0.578 0.030 0.872 0.030h-82.942c0 0-194.8-146.336-475.23-203.754-8.56-45.292-14.030-99.274-14.030-161.502s5.466-116.208 14.030-161.5c280.428-57.418 475.23-203.756 475.23-203.756h82.942c-0.292 0-0.578 0.024-0.872 0.032 72.696 1.288 131.482 164.298 131.482 365.224zM864.824 156.748c-9.382 0-19.532 9.742-24.746 15.548-12.63 14.064-24.792 35.96-35.188 63.328-23.256 61.232-36.066 143.31-36.066 231.124 0 87.81 12.81 169.89 36.066 231.122 10.394 27.368 22.562 49.266 35.188 63.328 5.214 5.812 15.364 15.552 24.746 15.552 9.38 0 19.536-9.744 24.744-15.552 12.634-14.064 24.796-35.958 35.188-63.328 23.258-61.23 36.068-143.312 36.068-231.122 0-87.804-12.81-169.888-36.068-231.124-10.39-27.368-22.562-49.264-35.188-63.328-5.208-5.806-15.36-15.548-24.744-15.548zM251.812 466.744c0 51.95 3.81 102.43 11.052 149.094-47.372-6.554-88.942-10.324-140.34-10.324-67.058 0-67.058 0-67.058 0l-55.466-94.686v-88.17l55.46-94.686c0 0 0 0 67.060 0 51.398 0 92.968-3.774 140.34-10.324-7.236 46.664-11.048 97.146-11.048 149.096zM368.15 253.828l-127.998 24.51 81.842-321.544c4.236-16.634 20.744-25.038 36.686-18.654l118.556 47.452c15.944 6.376 22.328 23.964 14.196 39.084l-123.282 229.152zM864.824 347.27c-3.618 0-7.528 3.754-9.538 5.992-4.87 5.42-9.556 13.86-13.562 24.408-8.962 23.6-13.9 55.234-13.9 89.078s4.938 65.478 13.9 89.078c4.006 10.548 8.696 18.988 13.562 24.408 2.010 2.24 5.92 5.994 9.538 5.994 3.616 0 7.53-3.756 9.538-5.994 4.87-5.42 9.556-13.858 13.56-24.408 8.964-23.598 13.902-55.234 13.902-89.078 0-33.842-4.938-65.478-13.902-89.078-4.004-10.548-8.696-18.988-13.56-24.408-2.008-2.238-5.92-5.992-9.538-5.992z" />
<glyph unicode="&#xe97b;" glyph-name="new" d="M896 704h-768c-70.4 0-128-57.6-128-128v-448c0-70.4 57.6-128 128-128h768c70.398 0 128 57.6 128 128v448c0 70.4-57.602 128-128 128zM320 192h-64l-128 213.334v-213.334h-64v320h64l128-213.334v213.334h64v-320zM576 448h-128v-64h128v-64h-128v-64h128v-63.998l-192-0.002v320h192v-64zM960 192h-95.998l-64.002 128-64-128h-96v320h64v-256l64 128h64.002l63.998-127.996v255.996h64v-320z" />
<glyph unicode="&#xe989;" glyph-name="mic" d="M480 192c88.366 0 160 71.634 160 160v384c0 88.366-71.634 160-160 160s-160-71.634-160-160v-384c0-88.366 71.636-160 160-160zM704 448v-96c0-123.71-100.29-224-224-224-123.712 0-224 100.29-224 224v96h-64v-96c0-148.238 112.004-270.3 256-286.22v-129.78h-128v-64h320v64h-128v129.78c143.994 15.92 256 137.982 256 286.22v96h-64z" />
<glyph unicode="&#xe991;" glyph-name="book2" d="M1016.904 665.342c-51.096 63.322-146.47 102.658-248.904 102.658s-197.808-39.336-248.904-102.658c-4.592-5.69-7.096-12.782-7.096-20.094 0 7.312-2.504 14.404-7.096 20.094-51.094 63.322-146.468 102.658-248.904 102.658s-197.81-39.336-248.904-102.658c-4.592-5.69-7.096-12.782-7.096-20.094v-640c0-13.564 8.554-25.656 21.344-30.174 12.792-4.518 27.042-0.48 35.56 10.078 39.242 48.636 115.532 78.848 199.096 78.848s159.854-30.212 199.096-78.848c6.196-7.678 15.418-11.908 24.91-11.908h63.988c9.49 0 18.716 4.23 24.91 11.908 39.242 48.636 115.532 78.848 199.096 78.848 83.562 0 159.852-30.212 199.096-78.848 8.52-10.554 22.766-14.594 35.56-10.078 12.792 4.518 21.344 16.61 21.344 30.174v640c0 7.312-2.504 14.404-7.096 20.094zM448 75.42c-52.022 33.296-120.28 52.58-192 52.58-71.718 0-139.978-19.284-192-52.578v557.898c40.904 43.826 113.22 70.68 192 70.68s151.096-26.856 192-70.68v-557.9zM960 75.422c-52.024 33.294-120.282 52.578-192 52.578s-139.976-19.284-192-52.58v557.9c40.904 43.824 113.22 70.68 192 70.68s151.096-26.854 192-70.68v-557.898z" />
<glyph unicode="&#xe993;" glyph-name="book3" d="M896 768v-832h-672c-53.026 0-96 42.98-96 96s42.974 96 96 96h608v768h-640c-70.398 0-128-57.6-128-128v-768c0-70.4 57.602-128 128-128h768v896h-64zM224.056 64v0c-0.018-0.002-0.038 0-0.056 0-17.672 0-32-14.326-32-32s14.328-32 32-32c0.018 0 0.038 0.002 0.056 0.002v-0.002h607.89v64h-607.89z" />
<glyph unicode="&#xe994;" glyph-name="bookmark" d="M896 768v-832h-672c-53.026 0-96 42.98-96 96s42.974 96 96 96h608v768h-640c-70.398 0-128-57.6-128-128v-768c0-70.4 57.602-128 128-128h768v896h-64zM320 864h320v-448l-160 160-160-160v448zM224.056 64v0c-0.018-0.002-0.038 0-0.056 0-17.672 0-32-14.326-32-32s14.328-32 32-32c0.018 0 0.038 0.002 0.056 0.002v-0.002h607.89v64h-607.89z" />
<glyph unicode="&#xe998;" glyph-name="library" horiz-adv-x="1088" d="M1024-64v64h-64v384h64v64h-192v-64h64v-384h-192v384h64v64h-192v-64h64v-384h-192v384h64v64h-192v-64h64v-384h-192v384h64v64h-192v-64h64v-384h-64v-64h-64v-64h1088v64h-64zM512 896h64l512-320v-64h-1088v64l512 320z" />
<glyph unicode="&#xe99a;" glyph-name="graduation" d="M192 308.668v-148.668c0-64 143.268-160 320-160 176.73 0 320 96 320 160v148.668l-320-160-320 160zM512 768l-512-256 512-256 415.428 207.714-31.428-271.714h64v288l64 32-512 256zM544 497.6c-25.626 0-46.4 20.774-46.4 46.4s20.774 46.4 46.4 46.4 46.4-20.774 46.4-46.4c0-25.626-20.772-46.4-46.4-46.4z" />
<glyph unicode="&#xe99d;" glyph-name="file-empty" d="M917.806 666.924c-22.212 30.292-53.174 65.7-87.178 99.704s-69.412 64.964-99.704 87.178c-51.574 37.82-76.592 42.194-90.924 42.194h-496c-44.112 0-80-35.888-80-80v-864c0-44.112 35.888-80 80-80h736c44.112 0 80 35.888 80 80v624c0 14.332-4.372 39.35-42.194 90.924zM785.374 721.374c30.7-30.7 54.8-58.398 72.58-81.374h-153.954v153.946c22.984-17.78 50.678-41.878 81.374-72.572zM896-48c0-8.672-7.328-16-16-16h-736c-8.672 0-16 7.328-16 16v864c0 8.672 7.328 16 16 16 0 0 495.956 0.002 496 0v-224c0-17.672 14.326-32 32-32h224v-624z" />
<glyph unicode="&#xe99f;" glyph-name="files-empty" d="M917.806 538.924c-22.21 30.292-53.174 65.7-87.178 99.704s-69.412 64.964-99.704 87.178c-51.574 37.82-76.592 42.194-90.924 42.194h-368c-44.114 0-80-35.888-80-80v-736c0-44.112 35.886-80 80-80h608c44.112 0 80 35.888 80 80v496c0 14.332-4.372 39.35-42.194 90.924zM785.374 593.374c30.7-30.7 54.8-58.398 72.58-81.374h-153.954v153.946c22.982-17.78 50.678-41.878 81.374-72.572v0zM896-48c0-8.672-7.328-16-16-16h-608c-8.672 0-16 7.328-16 16v736c0 8.672 7.328 16 16 16 0 0 367.956 0.002 368 0v-224c0-17.672 14.324-32 32-32h224v-496zM602.924 853.804c-51.574 37.822-76.592 42.196-90.924 42.196h-368c-44.112 0-80-35.888-80-80v-736c0-38.632 27.528-70.958 64-78.39v814.39c0 8.672 7.328 16 16 16h486.876c-9.646 7.92-19.028 15.26-27.952 21.804z" />
<glyph unicode="&#xe9a1;" glyph-name="file-plus" d="M917.806 666.924c-22.212 30.292-53.174 65.7-87.178 99.704s-69.412 64.964-99.704 87.178c-51.574 37.82-76.592 42.194-90.924 42.194h-496c-44.112 0-80-35.888-80-80v-864c0-44.112 35.888-80 80-80h400c17.674 0 32 14.326 32 32s-14.326 32-32 32h-400c-8.672 0-16 7.328-16 16v864c0 8.672 7.328 16 16 16 0 0 495.956 0.002 496 0v-224c0-17.672 14.326-32 32-32h224v-224c0-17.674 14.326-32 32-32s32 14.326 32 32v224c0 14.332-4.372 39.35-42.194 90.924zM704 640v153.946c22.984-17.78 50.678-41.878 81.374-72.574 30.7-30.7 54.8-58.398 72.58-81.374h-153.954zM1024 128h-128v128h-128v-128h-128v-128h128v-128h128v128h128z" />
<glyph unicode="&#xe9a3;" glyph-name="file-minus" d="M917.806 666.924c-22.212 30.292-53.174 65.7-87.178 99.704s-69.412 64.964-99.704 87.178c-51.574 37.82-76.592 42.194-90.924 42.194h-496c-44.112 0-80-35.888-80-80v-864c0-44.112 35.888-80 80-80h400c17.674 0 32 14.326 32 32s-14.326 32-32 32h-400c-8.672 0-16 7.328-16 16v864c0 8.672 7.328 16 16 16 0 0 495.956 0.002 496 0v-224c0-17.672 14.326-32 32-32h224v-224c0-17.674 14.326-32 32-32s32 14.326 32 32v224c0 14.332-4.372 39.35-42.194 90.924zM704 640v153.946c22.984-17.78 50.678-41.878 81.374-72.574 30.7-30.7 54.8-58.398 72.58-81.374h-153.954zM640 128h384v-128h-384v128z" />
<glyph unicode="&#xe9a5;" glyph-name="file-download" d="M853.806 666.924c-22.21 30.292-53.174 65.7-87.178 99.704s-69.412 64.964-99.704 87.178c-51.574 37.82-76.592 42.194-90.924 42.194h-432c-44.112 0-80-35.888-80-80v-240l32-704 32 704v240c0 8.672 7.328 16 16 16 0 0 431.956 0.002 432 0v-224c0-17.672 14.324-32 32-32h224l32-704 32 704c0 14.332-4.372 39.35-42.194 90.924zM640 640v153.946c22.982-17.78 50.678-41.878 81.374-72.572 30.7-30.7 54.8-58.398 72.58-81.374h-153.954zM576 448h-192v-320h-160l256-256 256 256h-160z" />
<glyph unicode="&#xe9a7;" glyph-name="file-upload" d="M853.806 666.924c-22.21 30.292-53.174 65.7-87.178 99.704s-69.412 64.964-99.704 87.178c-51.574 37.82-76.592 42.194-90.924 42.194h-432c-44.112 0-80-35.888-80-80v-240l32-704 32 704v240c0 8.672 7.328 16 16 16 0 0 431.956 0.002 432 0v-224c0-17.672 14.324-32 32-32h224l32-704 32 704c0 14.332-4.372 39.35-42.194 90.924zM640 640v153.946c22.982-17.78 50.678-41.878 81.374-72.572 30.7-30.7 54.8-58.398 72.58-81.374h-153.954zM384-128h192v320h160l-256 256-256-256h160z" />
<glyph unicode="&#xe9ad;" glyph-name="file-text2" d="M917.806 666.924c-22.212 30.292-53.174 65.7-87.178 99.704s-69.412 64.964-99.704 87.178c-51.574 37.82-76.592 42.194-90.924 42.194h-496c-44.112 0-80-35.888-80-80v-864c0-44.112 35.888-80 80-80h736c44.112 0 80 35.888 80 80v624c0 14.332-4.372 39.35-42.194 90.924zM785.374 721.374c30.7-30.7 54.8-58.398 72.58-81.374h-153.954v153.946c22.984-17.78 50.678-41.878 81.374-72.572zM896-48c0-8.672-7.328-16-16-16h-736c-8.672 0-16 7.328-16 16v864c0 8.672 7.328 16 16 16 0 0 495.956 0.002 496 0v-224c0-17.672 14.326-32 32-32h224v-624zM736 64h-448c-17.672 0-32 14.326-32 32s14.328 32 32 32h448c17.674 0 32-14.326 32-32s-14.326-32-32-32zM736 192h-448c-17.672 0-32 14.326-32 32s14.328 32 32 32h448c17.674 0 32-14.326 32-32s-14.326-32-32-32zM736 320h-448c-17.672 0-32 14.326-32 32s14.328 32 32 32h448c17.674 0 32-14.326 32-32s-14.326-32-32-32z" />
<glyph unicode="&#xe9af;" glyph-name="file-picture" d="M832 0h-640v128l192 320 263-320 185 128v-256zM832 416c0-53.020-42.98-96-96-96-53.022 0-96 42.98-96 96s42.978 96 96 96c53.020 0 96-42.98 96-96zM917.806 666.924c-22.212 30.292-53.174 65.7-87.178 99.704s-69.412 64.964-99.704 87.178c-51.574 37.82-76.592 42.194-90.924 42.194h-496c-44.112 0-80-35.888-80-80v-864c0-44.112 35.888-80 80-80h736c44.112 0 80 35.888 80 80v624c0 14.332-4.372 39.35-42.194 90.924zM785.374 721.374c30.7-30.7 54.8-58.398 72.58-81.374h-153.954v153.946c22.984-17.78 50.678-41.878 81.374-72.572zM896-48c0-8.672-7.328-16-16-16h-736c-8.672 0-16 7.328-16 16v864c0 8.672 7.328 16 16 16 0 0 495.956 0.002 496 0v-224c0-17.672 14.326-32 32-32h224v-624z" />
<glyph unicode="&#xe9b1;" glyph-name="file-music" d="M917.806 666.924c-22.21 30.292-53.174 65.7-87.178 99.704s-69.412 64.964-99.704 87.178c-51.574 37.82-76.592 42.194-90.924 42.194h-496c-44.112 0-80-35.888-80-80v-864c0-44.112 35.886-80 80-80h736c44.112 0 80 35.888 80 80v624c0 14.332-4.372 39.35-42.194 90.924v0zM785.374 721.374c30.7-30.7 54.8-58.398 72.58-81.374h-153.954v153.946c22.982-17.78 50.678-41.878 81.374-72.572v0zM896-48c0-8.672-7.328-16-16-16h-736c-8.672 0-16 7.328-16 16v864c0 8.672 7.328 16 16 16 0 0 495.956 0.002 496 0v-224c0-17.672 14.324-32 32-32h224v-624zM756.288 504.748c-7.414 6.080-17.164 8.514-26.562 6.632l-320-64c-14.958-2.994-25.726-16.126-25.726-31.38v-236.876c-18.832 8.174-40.678 12.876-64 12.876-70.692 0-128-42.98-128-96s57.308-96 128-96 128 42.98 128 96v229.766l256 51.202v-133.842c-18.832 8.174-40.678 12.876-64 12.876-70.692 0-128-42.98-128-96s57.308-96 128-96 128 42.98 128 96v319.998c0 9.586-4.298 18.668-11.712 24.748z" />
<glyph unicode="&#xe9b3;" glyph-name="file-play" d="M384 512l320-224-320-224v448zM917.806 666.924c-22.212 30.292-53.174 65.7-87.178 99.704s-69.412 64.964-99.704 87.178c-51.574 37.82-76.592 42.194-90.924 42.194h-496c-44.112 0-80-35.888-80-80v-864c0-44.112 35.888-80 80-80h736c44.112 0 80 35.888 80 80v624c0 14.332-4.372 39.35-42.194 90.924zM785.374 721.374c30.7-30.7 54.8-58.398 72.58-81.374h-153.954v153.946c22.984-17.78 50.678-41.878 81.374-72.572zM896-48c0-8.672-7.328-16-16-16h-736c-8.672 0-16 7.328-16 16v864c0 8.672 7.328 16 16 16 0 0 495.956 0.002 496 0v-224c0-17.672 14.326-32 32-32h224v-624z" />
<glyph unicode="&#xe9b5;" glyph-name="file-video" d="M917.806 666.924c-22.208 30.292-53.174 65.7-87.178 99.704s-69.412 64.964-99.704 87.178c-51.574 37.82-76.594 42.194-90.924 42.194h-496c-44.112 0-80-35.888-80-80v-864c0-44.112 35.882-80 80-80h736c44.112 0 80 35.888 80 80v624c0 14.332-4.372 39.35-42.194 90.924v0 0zM785.374 721.374c30.7-30.7 54.8-58.398 72.58-81.374h-153.954v153.946c22.98-17.78 50.678-41.878 81.374-72.572v0 0zM896-48c0-8.672-7.328-16-16-16h-736c-8.672 0-16 7.328-16 16v864c0 8.672 7.328 16 16 16 0 0 495.956 0.002 496 0v-224c0-17.672 14.32-32 32-32h224v-624zM256 384h320v-320h-320v320zM576 256l192 128v-320l-192 128z" />
<glyph unicode="&#xe9b9;" glyph-name="file-zip" d="M917.806 666.924c-22.208 30.292-53.174 65.7-87.178 99.704s-69.412 64.964-99.704 87.178c-51.574 37.82-76.592 42.194-90.924 42.194h-496c-44.112 0-80-35.888-80-80v-864c0-44.112 35.884-80 80-80h736c44.112 0 80 35.888 80 80v624c0 14.332-4.372 39.35-42.194 90.924v0 0zM785.374 721.374c30.7-30.7 54.8-58.398 72.58-81.374h-153.954v153.946c22.98-17.78 50.678-41.878 81.374-72.572v0 0zM896-48c0-8.672-7.328-16-16-16h-736c-8.672 0-16 7.328-16 16v864c0 8.672 7.328 16 16 16 0 0 495.956 0.002 496 0v-224c0-17.672 14.322-32 32-32h224v-624zM256 832h128v-64h-128v64zM384 768h128v-64h-128v64zM256 704h128v-64h-128v64zM384 640h128v-64h-128v64zM256 576h128v-64h-128v64zM384 512h128v-64h-128v64zM256 448h128v-64h-128v64zM384 384h128v-64h-128v64zM256 48c0-26.4 21.6-48 48-48h160c26.4 0 48 21.6 48 48v160c0 26.4-21.6 48-48 48h-80v64h-128v-272zM448 128v-64h-128v64h128z" />
<glyph unicode="&#xe9bb;" glyph-name="file-xml" d="M480 320l-64 64-192-192 192-192 64 64-128 128 128 128zM544 64l64-64 192 192-192 192-64-64 128-128-128-128zM917.806 666.924c-22.21 30.292-53.174 65.7-87.178 99.704s-69.412 64.964-99.704 87.178c-51.574 37.82-76.592 42.194-90.924 42.194h-496c-44.112 0-80-35.888-80-80v-864c0-44.112 35.886-80 80-80h736c44.112 0 80 35.888 80 80v624c0 14.332-4.372 39.35-42.194 90.924v0zM785.374 721.374c30.7-30.7 54.8-58.398 72.58-81.374h-153.954v153.946c22.982-17.78 50.678-41.878 81.374-72.572v0zM896-48c0-8.672-7.328-16-16-16h-736c-8.672 0-16 7.328-16 16v864c0 8.672 7.328 16 16 16 0 0 495.956 0.002 496 0v-224c0-17.672 14.324-32 32-32h224v-624z" />
<glyph unicode="&#xe9bd;" glyph-name="file-css" d="M917.806 666.924c-22.21 30.292-53.174 65.7-87.178 99.704s-69.412 64.964-99.704 87.178c-51.574 37.82-76.592 42.194-90.924 42.194h-496c-44.112 0-80-35.888-80-80v-864c0-44.112 35.886-80 80-80h736c44.112 0 80 35.888 80 80v624c0 14.332-4.372 39.35-42.194 90.924v0zM785.374 721.374c30.7-30.7 54.8-58.398 72.58-81.374h-153.954v153.946c22.982-17.78 50.678-41.878 81.374-72.572v0zM896-48c0-8.672-7.328-16-16-16h-736c-8.672 0-16 7.328-16 16v864c0 8.672 7.328 16 16 16 0 0 495.956 0.002 496 0v-224c0-17.672 14.324-32 32-32h224v-624zM416 64c-17.644 0-32 14.356-32 32v80c0 17.996-5.976 34.62-16.044 48 10.068 13.38 16.044 30.004 16.044 48v80c0 17.644 14.356 32 32 32 17.672 0 32 14.328 32 32s-14.328 32-32 32c-52.934 0-96-43.066-96-96v-80c0-8.822-7.178-16-16-16h-16c-17.672 0-32-14.326-32-32s14.328-32 32-32h16c8.822 0 16-7.178 16-16v-80c0-52.936 43.066-96 96-96 17.672 0 32 14.326 32 32s-14.326 32-32 32zM608 64c17.644 0 32 14.356 32 32v80c0 17.996 5.976 34.62 16.042 48-10.066 13.38-16.042 30.004-16.042 48v80c0 17.644-14.356 32-32 32-17.674 0-32 14.328-32 32s14.326 32 32 32c52.934 0 96-43.066 96-96v-80c0-8.822 7.176-16 16-16h16c17.672 0 32-14.326 32-32s-14.328-32-32-32h-16c-8.824 0-16-7.178-16-16v-80c0-52.936-43.066-96-96-96-17.674 0-32 14.326-32 32s14.326 32 32 32z" />
<glyph unicode="&#xe9bf;" glyph-name="file-presentation" d="M192 384h192v-64h-192v64zM192 256h192v-64h-192v64zM192 128h192v-64h-192v64zM576 192h188.792c-14.826-73.032-79.386-128-156.792-128-88.368 0-160 71.632-160 160 0 77.406 54.968 141.964 128 156.792v-188.792zM672 448c88.366 0 160-71.632 160-160 0-10.958-1.11-21.66-3.208-32h-188.792v188.792c10.34 2.1 21.042 3.208 32 3.208zM917.806 666.924c-22.21 30.292-53.174 65.7-87.178 99.704s-69.412 64.964-99.704 87.178c-51.574 37.82-76.592 42.194-90.924 42.194h-496c-44.112 0-80-35.888-80-80v-864c0-44.112 35.886-80 80-80h736c44.112 0 80 35.888 80 80v624c0 14.332-4.372 39.35-42.194 90.924v0zM785.374 721.374c30.7-30.7 54.8-58.398 72.58-81.374h-153.954v153.946c22.982-17.78 50.678-41.878 81.374-72.572v0zM896-48c0-8.672-7.328-16-16-16h-736c-8.672 0-16 7.328-16 16v864c0 8.672 7.328 16 16 16 0 0 495.956 0.002 496 0v-224c0-17.672 14.324-32 32-32h224v-624z" />
<glyph unicode="&#xe9c1;" glyph-name="file-stats" d="M917.806 666.924c-22.208 30.292-53.174 65.7-87.178 99.704s-69.412 64.964-99.704 87.178c-51.574 37.82-76.592 42.194-90.924 42.194h-496c-44.112 0-80-35.888-80-80v-864c0-44.112 35.884-80 80-80h736c44.112 0 80 35.888 80 80v624c0 14.332-4.372 39.35-42.194 90.924v0 0zM785.374 721.374c30.7-30.7 54.8-58.398 72.58-81.374h-153.954v153.946c22.98-17.78 50.678-41.878 81.374-72.572v0 0zM896-48c0-8.672-7.328-16-16-16h-736c-8.672 0-16 7.328-16 16v864c0 8.672 7.328 16 16 16 0 0 495.956 0.002 496 0v-224c0-17.672 14.322-32 32-32h224v-624zM256 576h128v-576h-128v576zM448 320h128v-320h-128v320zM640 192h128v-192h-128v192z" />
<glyph unicode="&#xe9c3;" glyph-name="file-locked" d="M917.806 666.924c-22.208 30.292-53.174 65.7-87.178 99.704s-69.412 64.964-99.704 87.178c-51.574 37.82-76.594 42.194-90.924 42.194h-496c-44.112 0-80-35.888-80-80v-864c0-44.112 35.882-80 80-80h736c44.112 0 80 35.888 80 80v624c0 14.332-4.372 39.35-42.194 90.924v0 0zM785.374 721.374c30.7-30.7 54.8-58.398 72.58-81.374h-153.954v153.946c22.98-17.78 50.678-41.878 81.374-72.572v0 0zM896-48c0-8.672-7.328-16-16-16h-736c-8.672 0-16 7.328-16 16v864c0 8.672 7.328 16 16 16 0 0 495.956 0.002 496 0v-224c0-17.672 14.32-32 32-32h224v-624zM672 320h-32v160c0 17.672-14.326 32-32 32h-192c-17.672 0-32-14.328-32-32v-160h-32c-17.6 0-32-14.4-32-32v-256c0-17.6 14.4-32 32-32h320c17.6 0 32 14.4 32 32v256c0 17.6-14.4 32-32 32zM448 448h128v-128h-128v128z" />
<glyph unicode="&#xe9c5;" glyph-name="file-spreadsheet" d="M917.806 666.924c-22.208 30.292-53.174 65.7-87.178 99.704s-69.412 64.964-99.704 87.178c-51.574 37.82-76.592 42.194-90.924 42.194h-496c-44.112 0-80-35.888-80-80v-864c0-44.112 35.884-80 80-80h736c44.112 0 80 35.888 80 80v624c0 14.332-4.372 39.35-42.194 90.924v0 0zM785.374 721.374c30.7-30.7 54.8-58.398 72.58-81.374h-153.954v153.946c22.98-17.78 50.678-41.878 81.374-72.572v0 0zM896-48c0-8.672-7.328-16-16-16h-736c-8.672 0-16 7.328-16 16v864c0 8.672 7.328 16 16 16 0 0 495.956 0.002 496 0v-224c0-17.672 14.322-32 32-32h224v-624zM192 448v-448h640v448h-640zM384 64h-128v128h128v-128zM384 256h-128v128h128v-128zM576 64h-128v128h128v-128zM576 256h-128v128h128v-128zM768 64h-128v128h128v-128zM768 256h-128v128h128v-128z" />
<glyph unicode="&#xe9de;" glyph-name="folder4" d="M421.49 704l128-128h410.51v-576h-896v704h357.49zM448 768h-448v-832h1024v704h-448l-128 128z" />
<glyph unicode="&#xe9ea;" glyph-name="folder-open3" d="M984.5 512h-88.5v208c0 26.51-21.49 48-48 48h-432l-32 64h-208c-26.51 0-48-21.49-48-48v-272h-88.5c-26.4 0-43.764-21.18-38.586-47.068l117.672-417.864c5.178-25.888 31.014-47.068 57.414-47.068h672c26.4 0 52.236 21.18 57.414 47.068l117.672 417.864c5.178 25.888-12.186 47.068-38.586 47.068zM192 768h152.446l32-64h455.554v-192h-640v256zM843.594 64h-663.188l-110.372 384h883.932l-110.372-384z" />
<glyph unicode="&#xe9f0;" glyph-name="price-tag3" d="M960 832v-368c0-9.44-8.522-30.012-15.196-36.686l-464.804-464.804-389.49 389.49 464.804 464.804c6.674 6.674 27.246 15.196 36.686 15.196h368zM976 896h-384c-26.4 0-63.274-15.274-81.942-33.942l-476.116-476.116c-18.668-18.668-18.668-49.214 0-67.882l412.118-412.118c9.334-9.334 21.638-14 33.942-14s24.608 4.666 33.942 14l476.118 476.118c18.664 18.666 33.938 55.54 33.938 81.94v384c0 26.4-21.6 48-48 48v0zM832 608c0-53.019-42.981-96-96-96s-96 42.981-96 96c0 53.019 42.981 96 96 96s96-42.981 96-96z" />
<glyph unicode="&#xe9f1;" glyph-name="price-tags2" horiz-adv-x="1280" d="M1216 832v-368c0-9.44-8.522-30.012-15.196-36.686l-464.804-464.804-389.49 389.49 464.804 464.804c6.674 6.674 27.246 15.196 36.686 15.196h368zM1232 896h-384c-26.4 0-63.274-15.274-81.942-33.942l-476.116-476.116c-18.668-18.668-18.668-49.214 0-67.882l412.118-412.118c9.334-9.334 21.636-14 33.942-14s24.608 4.666 33.942 14l476.118 476.118c18.664 18.666 33.938 55.54 33.938 81.94v384c0 26.4-21.6 48-48 48v0zM1088 608c0-53.019-42.981-96-96-96s-96 42.981-96 96c0 53.019 42.981 96 96 96s96-42.981 96-96zM634.512 896h-42.512c-26.4 0-63.274-15.274-81.942-33.942l-476.116-476.116c-18.668-18.668-18.668-49.214 0-67.882l412.118-412.118c9.334-9.334 21.638-14 33.942-14s24.608 4.666 33.942 14l11.312 11.312-434.746 434.746 544.002 544z" />
<glyph unicode="&#xe9fd;" glyph-name="store2" d="M416 320h-192c-17.672 0-32-14.326-32-32v-192c0-17.674 14.328-32 32-32h192c17.672 0 32 14.326 32 32v192c0 17.674-14.328 32-32 32zM384 128h-128v128h128v-128zM1024 512v288c0 17.672-14.326 32-32 32h-960c-17.672 0-32-14.328-32-32v-288c0-47.274 25.78-88.612 64-110.78v-465.22h-32c-17.672 0-32-14.326-32-32s14.328-32 32-32h960c17.674 0 32 14.326 32 32s-14.326 32-32 32h-32v465.22c38.22 22.168 64 63.506 64 110.78zM640 768h128v-256c0-35.29-28.71-64-64-64-35.292 0-64 28.71-64 64v256zM256 768h128v-256c0-35.29-28.71-64-64-64-35.292 0-64 28.71-64 64v256zM768-64h-128v256h128v-256zM896-64h-64v288c0 17.674-14.326 32-32 32h-192c-17.674 0-32-14.326-32-32v-288h-448v448c38.204 0 72.526 16.844 96 43.472 23.474-26.628 57.796-43.472 96-43.472s72.526 16.844 96 43.472c23.474-26.628 57.796-43.472 96-43.472s72.528 16.844 96 43.47c23.472-26.626 57.796-43.47 96-43.47s72.528 16.844 96 43.47c23.472-26.626 57.796-43.47 96-43.47v-448z" />
<glyph unicode="&#xe9ff;" glyph-name="cart2" d="M847.218 320c35.2 0 71.912 27.692 81.582 61.54l92.836 324.924c9.67 33.844-11.218 61.536-46.418 61.536h-655.218c0 70.692-57.308 128-128 128h-192v-128h192v-544c0-53.020 42.98-96 96-96h608c35.346 0 64 28.654 64 64s-28.654 64-64 64h-576v64h527.218zM320 640h578.806l-54.86-192h-523.946v192zM384-32c0-53.019-42.981-96-96-96s-96 42.981-96 96c0 53.019 42.981 96 96 96s96-42.981 96-96zM960-32c0-53.019-42.981-96-96-96s-96 42.981-96 96c0 53.019 42.981 96 96 96s96-42.981 96-96z" />
<glyph unicode="&#xea07;" glyph-name="bag" d="M704 704v32c0 88.366-71.634 160-160 160-36.022 0-69.258-11.91-96-31.998-26.742 20.088-59.978 31.998-96 31.998-88.366 0-160-71.634-160-160v-108.8l-128-19.2v-672h128l64-64 640 96v672l-192 64zM192 0h-64v552.884l64 9.6v-562.484zM544 832c52.936 0 96-43.066 96-96v-41.6l-128-19.2v60.8c0 29.062-7.788 56.29-21.332 79.78 15.266 10.236 33.612 16.22 53.332 16.22zM256 736c0 52.934 43.066 96 96 96 19.72 0 38.066-5.984 53.332-16.222-13.544-23.488-21.332-50.716-21.332-79.778v-80l-128-19.2v99.2zM832 23.116l-512-76.798v542.566l512 76.8v-542.568z" />
<glyph unicode="&#xea1b;" glyph-name="lifebuoy" d="M512 896c-282.77 0-512-229.23-512-512s229.23-512 512-512 512 229.23 512 512-229.23 512-512 512zM320 384c0 106.040 85.96 192 192 192s192-85.96 192-192-85.96-192-192-192-192 85.96-192 192zM925.98 212.524v0l-177.42 73.49c12.518 30.184 19.44 63.276 19.44 97.986s-6.922 67.802-19.44 97.986l177.42 73.49c21.908-52.822 34.020-110.73 34.020-171.476s-12.114-118.654-34.020-171.476v0zM683.478 797.98v0 0l-73.49-177.42c-30.184 12.518-63.276 19.44-97.988 19.44s-67.802-6.922-97.986-19.44l-73.49 177.422c52.822 21.904 110.732 34.018 171.476 34.018 60.746 0 118.654-12.114 171.478-34.020zM98.020 555.476l177.422-73.49c-12.518-30.184-19.442-63.276-19.442-97.986s6.922-67.802 19.44-97.986l-177.42-73.49c-21.906 52.822-34.020 110.73-34.020 171.476s12.114 118.654 34.020 171.476zM340.524-29.98l73.49 177.42c30.184-12.518 63.276-19.44 97.986-19.44s67.802 6.922 97.986 19.44l73.49-177.42c-52.822-21.904-110.73-34.020-171.476-34.020-60.744 0-118.654 12.114-171.476 34.020z" />
<glyph unicode="&#xea1c;" glyph-name="phone" d="M966.086 719.18c-28.44 24.012-67.39 44.95-115.776 62.23-91.348 32.624-211.496 50.59-338.31 50.59 0 0 0 0-0.002 0-126.814 0-246.962-17.966-338.31-50.592-48.384-17.28-87.336-38.216-115.774-62.23-47.87-40.418-57.918-82.768-57.918-111.18l0.004-64c0-16.972 6.744-33.25 18.746-45.25l32-32c12.236-12.238 28.602-18.748 45.268-18.748 7.992 0 16.052 1.496 23.756 4.578l160 64c24.298 9.72 40.23 33.254 40.23 59.422v111.642c58.562 10.68 124.22 16.358 191.998 16.358 0 0 0 0 0.002 0 67.78 0 133.438-5.678 191.998-16.358v-111.642c0-26.17 15.932-49.704 40.232-59.422l160-64c7.704-3.082 15.764-4.578 23.754-4.578 16.666 0 33.032 6.51 45.27 18.746l32 32c12 12.002 18.742 28.278 18.744 45.25l0.004 64c0 28.414-10.048 70.764-57.916 111.184zM955.606 99.866c-0.978 3.424-24.424 84.826-64.37 167.582-57.828 119.804-155.236 180.552-283.236 180.552h-192c-128 0-225.408-60.748-283.236-180.552-39.946-82.756-63.39-164.158-64.368-167.582-12.002-42.008-5.446-83.918 17.988-114.982 23.432-31.068 61.928-48.884 105.616-48.884h640c43.69 0 82.186 17.816 105.618 48.882 23.434 31.066 29.99 72.976 17.988 114.984zM512 64c-70.692 0-128 57.308-128 128s57.308 128 128 128c70.694 0 128-57.308 128-128s-57.306-128-128-128z" />
<glyph unicode="&#xea1d;" glyph-name="phone2" d="M704 256c-64-64-64-128-128-128s-128 64-192 128-128 128-128 192 64 64 128 128-128 256-192 256-192-192-192-192c0-128 131.5-387.5 256-512s384-256 512-256c0 0 192 128 192 192s-192 256-256 192z" />
<glyph unicode="&#xea2b;" glyph-name="address-book" d="M192 896v-1024h768v1024h-768zM576 639.67c70.51 0 127.67-57.16 127.67-127.67s-57.16-127.67-127.67-127.67-127.67 57.16-127.67 127.67 57.16 127.67 127.67 127.67v0zM768 128h-384v64c0 70.696 57.306 128 128 128v0h128c70.696 0 128-57.304 128-128v-64zM64 832h96v-192h-96v192zM64 576h96v-192h-96v192zM64 320h96v-192h-96v192zM64 64h96v-192h-96v192z" />
<glyph unicode="&#xea2f;" glyph-name="at-sign" d="M874.040 746.040c-96.706 96.702-225.28 149.96-362.040 149.96s-265.334-53.258-362.040-149.96c-96.702-96.706-149.96-225.28-149.96-362.040s53.258-265.334 149.96-362.040c96.706-96.702 225.28-149.96 362.040-149.96 76.76 0 150.6 16.59 219.466 49.306 31.928 15.168 45.512 53.346 30.346 85.272s-53.346 45.508-85.272 30.346c-51.572-24.502-106.93-36.924-164.54-36.924-211.738 0-384 172.262-384 384s172.262 384 384 384 384-172.262 384-384v-64c0-35.29-28.71-64-64-64s-64 28.71-64 64v256c0 35.346-28.654 64-64 64-25.982 0-48.332-15.494-58.36-37.736-38.926 23.92-84.696 37.736-133.64 37.736-141.16 0-256-114.84-256-256 0-141.158 114.84-256 256-256 66.908 0 127.892 25.812 173.548 67.99 35.246-41.56 87.818-67.99 146.452-67.99 105.87 0 192 86.13 192 192v64c0 136.76-53.258 265.334-149.96 362.040zM512 256c-70.58 0-128 57.42-128 128s57.42 128 128 128c70.58 0 128-57.42 128-128s-57.42-128-128-128z" />
<glyph unicode="&#xea31;" glyph-name="envelop2" d="M959.884 704c0.040-0.034 0.082-0.076 0.116-0.116v-639.77c-0.034-0.040-0.076-0.082-0.116-0.116h-895.77c-0.040 0.034-0.082 0.076-0.114 0.116v639.772c0.034 0.040 0.076 0.082 0.114 0.114h895.77zM960 768h-896c-35.2 0-64-28.8-64-64v-640c0-35.2 28.8-64 64-64h896c35.2 0 64 28.8 64 64v640c0 35.2-28.8 64-64 64v0zM373.174 270.522l-192-139.634c-6.392-4.65-13.802-6.888-21.144-6.888-11.126 0-22.098 5.14-29.144 14.828-11.694 16.078-8.14 38.594 7.94 50.29l192 139.636c16.078 11.692 38.594 8.136 50.288-7.942 11.694-16.080 8.14-38.598-7.94-50.29zM893.116 138.826c-7.042-9.69-18.020-14.828-29.142-14.828-7.344 0-14.752 2.238-21.144 6.884l-192.006 139.64c-16.080 11.696-19.634 34.208-7.942 50.292 11.692 16.082 34.208 19.63 50.29 7.942l192.006-139.638c16.076-11.698 19.63-34.212 7.938-50.292zM885.174 578.886l-352-256c-6.31-4.594-13.742-6.886-21.174-6.886s-14.862 2.292-21.174 6.882l-352 256c-16.080 11.694-19.634 34.208-7.94 50.288s34.212 19.632 50.288 7.94l330.826-240.596 330.826 240.6c16.076 11.696 38.592 8.138 50.29-7.94 11.692-16.080 8.138-38.594-7.942-50.288v0z" />
<glyph unicode="&#xea38;" glyph-name="location" d="M512 896c-176.732 0-320-143.268-320-320 0-320 320-704 320-704s320 384 320 704c0 176.732-143.27 320-320 320zM512 384c-106.040 0-192 85.96-192 192s85.96 192 192 192 192-85.96 192-192-85.96-192-192-192z" />
<glyph unicode="&#xea3f;" glyph-name="compass" d="M544.010-128.004c-2.296 0-4.622 0.25-6.94 0.764-14.648 3.25-25.070 16.238-25.070 31.24v480h-480c-15.002 0-27.992 10.422-31.24 25.070-3.25 14.646 4.114 29.584 17.708 35.928l960 448c12.196 5.688 26.644 3.144 36.16-6.372 9.516-9.514 12.060-23.966 6.372-36.16l-448-960c-5.342-11.44-16.772-18.47-28.99-18.47zM176.242 448h367.758c17.674 0 32-14.328 32-32v-367.758l349.79 749.546-749.548-349.788z" />
<glyph unicode="&#xea43;" glyph-name="compass5" d="M512 896c-282.77 0-512-229.23-512-512s229.23-512 512-512 512 229.23 512 512-229.23 512-512 512zM96 384c0 229.75 186.25 416 416 416 109.574 0 209.232-42.386 283.534-111.628l-411.534-176.372-176.372-411.534c-69.242 74.302-111.628 173.96-111.628 283.534zM585.166 310.834l-256.082-109.75 109.75 256.082 146.332-146.332zM512-32c-109.574 0-209.234 42.386-283.532 111.628l411.532 176.372 176.372 411.532c69.242-74.298 111.628-173.958 111.628-283.532 0-229.75-186.25-416-416-416z" />
<glyph unicode="&#xea49;" glyph-name="map5" d="M672 704l-320 128-352-128v-768l352 128 320-128 352 128v768l-352-128zM384 750.27l256-102.4v-630.138l-256 102.398v630.14zM64 659.172l256 93.090v-631.8l-256-93.088v631.798zM960 108.828l-256-93.092v631.8l256 93.090v-631.798z" />
<glyph unicode="&#xea4f;" glyph-name="clock3" d="M768 448v-128h-320v384h128v-256zM512 896c-282.77 0-512-229.23-512-512s229.23-512 512-512 512 229.23 512 512-229.23 512-512 512zM512 0c-212.078 0-384 171.922-384 384s171.922 384 384 384c212.078 0 384-171.922 384-384s-171.922-384-384-384z" />
<glyph unicode="&#xea58;" glyph-name="bell2" d="M1024 64c-106.042 0-192 85.96-192 192v285.090c0 140.738-109.942 258.128-256 285.084v69.826h-128v-69.824c-146.064-26.958-256-144.346-256-285.084v-285.092c0-106.040-85.962-192-192-192v-64h429.598c-5.208-11.424-8.11-24.118-8.11-37.49 0-49.986 40.524-90.51 90.512-90.51 49.984 0 90.51 40.524 90.51 90.51 0 13.376-2.902 26.066-8.112 37.49h429.602v64z" />
<glyph unicode="&#xea5e;" glyph-name="stopwatch" d="M512.002 702.788v65.212h128v64c0 35.346-28.654 64-64.002 64h-191.998c-35.346 0-64-28.654-64-64v-64h128v-65.212c-214.798-16.338-384-195.802-384-414.788 0-229.75 186.25-416 416-416s416 186.25 416 416c0 218.984-169.202 398.448-384 414.788zM706.276 61.726c-60.442-60.44-140.798-93.726-226.274-93.726s-165.834 33.286-226.274 93.726c-60.44 60.44-93.726 140.8-93.726 226.274s33.286 165.834 93.726 226.274c58.040 58.038 134.448 91.018 216.114 93.548l-21.678-314.020c-1.86-26.29 12.464-37.802 31.836-37.802s33.698 11.512 31.836 37.802l-21.676 314.022c81.666-2.532 158.076-35.512 216.116-93.55 60.44-60.44 93.726-140.8 93.726-226.274s-33.286-165.834-93.726-226.274z" />
<glyph unicode="&#xea5f;" glyph-name="calendar" d="M0-64c0-35.348 28.654-64 64-64h896c35.348 0 64 28.652 64 64v576h-1024v-576zM704 448h256v-128h-256v128zM704 256h256v-128h-256v128zM704 64h256v-128h-256v128zM384 448h256v-128h-256v128zM384 256h256v-128h-256v128zM384 64h256v-128h-256v128zM64 448h256v-128h-256v128zM64 256h256v-128h-256v128zM64 64h256v-128h-256v128zM960 768h-128v91.428c0 20.198-14.326 36.572-32 36.572-17.672 0-32-16.374-32-36.572v-91.428h-512v91.428c0 20.198-14.326 36.572-32 36.572s-32-16.374-32-36.572v-91.428h-128c-35.346 0-64-28.654-64-64v-128h1024v128c0 35.346-28.654 64-64 64zM224 608c-35.346 0-64 28.654-64 64 0 23.684 12.876 44.348 32 55.416v-55.416c0-17.672 14.328-32 32-32s32 14.328 32 32v55.416c19.124-11.068 32-31.732 32-55.416 0-35.346-28.654-64-64-64zM800 608c-35.344 0-64 28.654-64 64 0 23.684 12.876 44.348 32 55.416v-55.416c0-17.672 14.328-32 32-32 17.674 0 32 14.328 32 32v55.416c19.126-11.068 32-31.732 32-55.416 0-35.346-28.652-64-64-64z" />
<glyph unicode="&#xea61;" glyph-name="calendar3" d="M512 448h64v-64h-64v64zM640 320h64v-64h-64v64zM640 192h64v-64h-64v64zM512 576h64v-64h-64v64zM512 320h64v-64h-64v64zM512 64h64v-64h-64v64zM512 192h64v-64h-64v64zM384 576h64v-64h-64v64zM768 320h64v-64h-64v64zM768 448h64v-64h-64v64zM768 576h64v-64h-64v64zM768 192h64v-64h-64v64zM640 576h64v-64h-64v64zM768 64h64v-64h-64v64zM640 448h64v-64h-64v64zM640 64h64v-64h-64v64zM128 448h64v-64h-64v64zM128 320h64v-64h-64v64zM256 64h64v-64h-64v64zM384 448h64v-64h-64v64zM128 64h64v-64h-64v64zM128 192h64v-64h-64v64zM128 576h64v-64h-64v64zM384 192h64v-64h-64v64zM256 192h64v-64h-64v64zM384 320h64v-64h-64v64zM384 64h64v-64h-64v64zM256 576h64v-64h-64v64zM256 320h64v-64h-64v64zM256 448h64v-64h-64v64zM768 832v64h-128v-64h-320v64h-128v-64h-192v-960h960v960h-192zM640 768h128v-64h-128v64zM192 768h128v-64h-128v64zM896-64h-832v704h832v-704z" />
<glyph unicode="&#xea64;" glyph-name="printer" d="M1018.626 433.75l-128 192c-5.934 8.902-15.926 14.25-26.626 14.25h-96v224c0 17.672-14.326 32-32 32h-448c-17.672 0-32-14.328-32-32v-224h-96c-10.7 0-20.69-5.348-26.626-14.25l-128-192c-3.504-5.256-5.374-11.432-5.374-17.75v-320c0-17.674 14.328-32 32-32h147.602l-49.96-149.88c-3.252-9.758-1.618-20.484 4.398-28.83 6.016-8.344 15.674-13.29 25.96-13.29h704c10.288 0 19.946 4.946 25.958 13.29 6.016 8.346 7.652 19.072 4.398 28.83l-49.96 149.88h147.604c17.674 0 32 14.326 32 32v320c0 6.318-1.868 12.494-5.374 17.75zM320 832h384v-256h-384v256zM204.398-64l106.666 320h401.872l106.666-320h-615.204zM960 128h-136.936l-56.708 170.12c-4.354 13.066-16.582 21.88-30.356 21.88h-448c-13.774 0-26.002-8.814-30.358-21.88l-56.704-170.12h-136.938v278.312l113.126 169.688h78.874v-32c0-17.672 14.328-32 32-32h448c17.674 0 32 14.328 32 32v32h78.876l113.124-169.688v-278.312zM608 192h-192c-17.672 0-32-14.326-32-32s14.328-32 32-32h192c17.674 0 32 14.326 32 32s-14.326 32-32 32zM672 64h-320c-17.672 0-32-14.326-32-32s14.328-32 32-32h320c17.674 0 32 14.326 32 32s-14.326 32-32 32z" />
<glyph unicode="&#xea6b;" glyph-name="mouse-left" d="M480 832c-96 0-288-37.36-288-192v-424c0-154.636 128.942-280 288-280 159.056 0 288 125.364 288 280v424c0 154.64-192 192-288 192zM704 216c0-57.354-23.074-111.372-64.968-152.102-20.574-20.004-44.554-35.714-71.27-46.706-27.746-11.406-57.272-17.192-87.762-17.192s-60.018 5.786-87.762 17.196c-26.716 10.988-50.7 26.702-71.274 46.706-41.892 40.726-64.964 94.744-64.964 152.098v232h448v-232zM704 512h-192v256c37.736-3.266 82.844-13.808 120.408-31.756 23.61-11.282 41.59-24.782 53.442-40.126 12.21-15.814 18.15-34.172 18.15-56.118v-128z" />
<glyph unicode="&#xea70;" glyph-name="display" d="M0 832v-640h1024v640h-1024zM960 256h-896v512h896v-512zM672 128h-320l-32-128-64-64h512l-64 64z" />
<glyph unicode="&#xea75;" glyph-name="mobile" d="M736 896h-448c-52.8 0-96-43.2-96-96v-832c0-52.8 43.2-96 96-96h448c52.8 0 96 43.2 96 96v832c0 52.8-43.2 96-96 96zM384 848h256v-32h-256v32zM512-64c-35.346 0-64 28.654-64 64s28.654 64 64 64 64-28.654 64-64-28.654-64-64-64zM768 128h-512v640h512v-640z" />
<glyph unicode="&#xea77;" glyph-name="tablet" d="M800 896h-640c-52.8 0-96-43.2-96-96v-832c0-52.8 43.2-96 96-96h640c52.8 0 96 43.2 96 96v832c0 52.8-43.2 96-96 96zM480-96c-17.672 0-32 14.326-32 32s14.328 32 32 32 32-14.326 32-32-14.328-32-32-32zM768 0h-576v768h576v-768z" />
<glyph unicode="&#xea7c;" glyph-name="drawer" d="M1016.988 243.99l-256 320c-6.074 7.592-15.266 12.010-24.988 12.010h-448c-9.72 0-18.916-4.418-24.988-12.010l-256-320c-4.538-5.674-7.012-12.724-7.012-19.99v-288c0-35.346 28.654-64 64-64h896c35.348 0 64 28.654 64 64v288c0 7.266-2.472 14.316-7.012 19.99zM960 192h-224l-128-128h-192l-128 128h-224v20.776l239.38 299.224h417.24l239.38-299.224v-20.776zM736 384h-448c-17.672 0-32 14.328-32 32s14.328 32 32 32h448c17.674 0 32-14.328 32-32s-14.326-32-32-32zM800 256h-576c-17.672 0-32 14.326-32 32s14.328 32 32 32h576c17.674 0 32-14.326 32-32s-14.326-32-32-32z" />
<glyph unicode="&#xea81;" glyph-name="box" d="M64 768h896v-128h-896zM128 0h768v576h-768v-576zM384 512h256v-64h-256v64z" />
<glyph unicode="&#xea8f;" glyph-name="server" d="M832 896h-640l-192-256h1024l-192 256zM0 576v-192h1024v192h-1024zM960 448h-64v64h64v-64zM0 320v-192h1024v192h-1024zM960 192h-64v64h64v-64zM0 64v-192h1024v192h-1024zM960-64h-64v64h64v-64z" />
<glyph unicode="&#xeabd;" glyph-name="redo2" d="M576 647.628v248.372l384-384-384-384v253.824c-446.75 10.482-427.588-303.792-313.86-509.824-280.712 303.414-221.1 789.57 313.86 775.628z" />
<glyph unicode="&#xeac4;" glyph-name="bubble2" d="M512 704c-54.932 0-107.988-8.662-157.694-25.742-46.712-16.054-88.306-38.744-123.628-67.444-66.214-53.798-102.678-122.984-102.678-194.814 0-40.298 11.188-79.378 33.252-116.152 22.752-37.92 56.982-72.586 98.988-100.252 30.356-19.992 50.78-51.948 56.176-87.894 1.8-11.984 2.928-24.088 3.37-36.124 7.47 6.194 14.75 12.846 21.88 19.976 24.154 24.152 56.78 37.49 90.502 37.49 5.368 0 10.762-0.336 16.156-1.024 20.974-2.666 42.398-4.020 63.676-4.020 54.934 0 107.988 8.66 157.694 25.742 46.712 16.054 88.306 38.744 123.628 67.444 66.214 53.796 102.678 122.984 102.678 194.814s-36.464 141.016-102.678 194.814c-35.322 28.698-76.916 51.39-123.628 67.444-49.706 17.080-102.76 25.742-157.694 25.742zM512 832v0c282.77 0 512-186.25 512-416 0-229.752-229.23-416-512-416-27.156 0-53.81 1.734-79.824 5.044-109.978-109.978-241.25-129.7-368.176-132.596v26.916c68.536 33.578 128 94.74 128 164.636 0 9.754-0.758 19.33-2.164 28.696-115.796 76.264-189.836 192.754-189.836 323.304 0 229.75 229.23 416 512 416z" />
<glyph unicode="&#xeac6;" glyph-name="bubbles4" horiz-adv-x="1152" d="M480 768c-50.666 0-99.582-7.95-145.386-23.628-42.924-14.694-81.114-35.436-113.502-61.646-60.044-48.59-93.112-110.802-93.112-175.174 0-35.99 10.066-70.948 29.92-103.898 20.686-34.34 51.898-65.794 90.26-90.958 30.44-19.968 50.936-51.952 56.362-87.95 0.902-5.99 1.63-12.006 2.18-18.032 2.722 2.52 5.424 5.114 8.114 7.794 24.138 24.040 56.688 37.312 90.322 37.312 5.348 0 10.718-0.336 16.094-1.018 19.36-2.452 39.124-3.696 58.748-3.696 50.666 0 99.58 7.948 145.384 23.628 42.926 14.692 81.116 35.434 113.504 61.644 60.046 48.59 93.112 110.802 93.112 175.174s-33.066 126.582-93.112 175.174c-32.388 26.212-70.578 46.952-113.504 61.646-45.804 15.678-94.718 23.628-145.384 23.628zM480 896v0c265.096 0 480-173.914 480-388.448s-214.904-388.448-480-388.448c-25.458 0-50.446 1.62-74.834 4.71-103.106-102.694-222.172-121.108-341.166-123.814v25.134c64.252 31.354 116 88.466 116 153.734 0 9.106-0.712 18.048-2.030 26.794-108.558 71.214-177.97 179.988-177.97 301.89 0 214.534 214.904 388.448 480 388.448zM996 25.314c0-55.942 36.314-104.898 92-131.772v-21.542c-103.126 2.318-197.786 18.102-287.142 106.126-21.14-2.65-42.794-4.040-64.858-4.040-95.47 0-183.408 25.758-253.614 69.040 144.674 0.506 281.26 46.854 384.834 130.672 52.208 42.252 93.394 91.826 122.414 147.348 30.766 58.866 46.366 121.582 46.366 186.406 0 10.448-0.45 20.836-1.258 31.168 72.57-59.934 117.258-141.622 117.258-231.676 0-104.488-60.158-197.722-154.24-258.764-1.142-7.496-1.76-15.16-1.76-22.966z" />
<glyph unicode="&#xead8;" glyph-name="bubble9" d="M928 832h-832c-52.8 0-96-43.2-96-96v-512c0-52.8 43.2-96 96-96h160v-256l307.2 256h364.8c52.8 0 96 43.2 96 96v512c0 52.8-43.2 96-96 96zM896 256h-379.142l-196.858-174.714v174.714h-192v448h768v-448z" />
<glyph unicode="&#xeadb;" glyph-name="bubbles9" horiz-adv-x="1152" d="M800 896h-704c-52.8 0-96-43.2-96-96v-320c0-52.8 43.2-96 96-96h32v-256l307.2 256h364.8c52.8 0 96 43.2 96 96v320c0 52.8-43.2 96-96 96zM768 512h-379.144l-196.856-174.714v174.714h-64v256h640v-256zM1056 704c52.8 0 96-43.2 96-96v-384c0-52.8-43.2-96-96-96h-160v-256l-307.2 256h-204.8v128h251.14l196.86-174.714v174.714h192v320h-64v128h96z" />
<glyph unicode="&#xeaf4;" glyph-name="user" d="M576 189.388v52.78c70.498 39.728 128 138.772 128 237.832 0 159.058 0 288-192 288s-192-128.942-192-288c0-99.060 57.502-198.104 128-237.832v-52.78c-217.102-17.748-384-124.42-384-253.388h896c0 128.968-166.898 235.64-384 253.388z" />
<glyph unicode="&#xeaf5;" glyph-name="users" horiz-adv-x="1152" d="M768 125.388v52.78c70.498 39.728 128 138.772 128 237.832 0 159.058 0 288-192 288s-192-128.942-192-288c0-99.060 57.502-198.104 128-237.832v-52.78c-217.102-17.748-384-124.42-384-253.388h896c0 128.968-166.898 235.64-384 253.388zM327.196 100.672c55.31 36.15 124.080 63.636 199.788 80.414-15.054 17.784-28.708 37.622-40.492 59.020-30.414 55.234-46.492 116.058-46.492 175.894 0 86.042 0 167.31 30.6 233.762 29.706 64.504 83.128 104.496 159.222 119.488-16.914 76.48-61.94 126.75-181.822 126.75-192 0-192-128.942-192-288 0-99.060 57.502-198.104 128-237.832v-52.78c-217.102-17.748-384-124.42-384-253.388h279.006c14.518 12.91 30.596 25.172 48.19 36.672z" />
<glyph unicode="&#xeb19;" glyph-name="quotes-right" d="M800 256c-123.712 0-224 100.29-224 224 0 123.712 100.288 224 224 224s224-100.288 224-224l1-32c0-247.424-200.576-448-448-448v128c85.474 0 165.834 33.286 226.274 93.726 11.634 11.636 22.252 24.016 31.83 37.020-11.438-1.8-23.16-2.746-35.104-2.746zM224 256c-123.71 0-224 100.29-224 224 0 123.712 100.29 224 224 224s224-100.288 224-224l1-32c0-247.424-200.576-448-448-448v128c85.474 0 165.834 33.286 226.274 93.726 11.636 11.636 22.254 24.016 31.832 37.020-11.44-1.8-23.16-2.746-35.106-2.746z" />
<glyph unicode="&#xeb21;" glyph-name="spinner3" d="M512 592.904c-32.964 0-59.686 26.724-59.686 59.686v179.060c0 32.964 26.722 59.686 59.686 59.686 32.962 0 59.688-26.722 59.688-59.686v-179.060c0-32.964-26.726-59.686-59.688-59.686zM512-100.956c-20.602 0-37.304 16.702-37.304 37.304v179.060c0 20.602 16.702 37.304 37.304 37.304 20.604 0 37.304-16.704 37.304-37.304v-179.060c0-20.602-16.7-37.304-37.304-37.304zM377.756 560.64c-19.34 0-38.146 10.034-48.512 27.988l-89.53 155.070c-15.452 26.764-6.282 60.986 20.482 76.438 26.762 15.45 60.986 6.284 76.438-20.482l89.53-155.072c15.452-26.764 6.282-60.986-20.482-76.438-8.81-5.084-18.432-7.504-27.926-7.504zM735.856-37.256c-11.602 0-22.886 6.022-29.108 16.792l-89.53 155.070c-9.27 16.056-3.77 36.592 12.29 45.864 16.056 9.264 36.59 3.77 45.864-12.292l89.532-155.068c9.27-16.058 3.768-36.592-12.292-45.864-5.286-3.048-11.060-4.502-16.756-4.502zM279.344 466.060c-8.86 0-17.838 2.256-26.064 7.006l-155.072 89.53c-24.978 14.422-33.538 46.362-19.116 71.342 14.42 24.978 46.364 33.538 71.342 19.116l155.070-89.53c24.98-14.422 33.538-46.362 19.116-71.34-9.668-16.756-27.226-26.124-45.276-26.124zM899.648 130.326c-5.064 0-10.196 1.29-14.894 4.004l-155.068 89.53c-14.274 8.24-19.164 26.494-10.924 40.768 8.242 14.276 26.496 19.166 40.766 10.924l155.070-89.532c14.274-8.24 19.164-26.492 10.924-40.766-5.53-9.574-15.562-14.928-25.874-14.928zM243.41 335.504h-179.060c-26.784 0-48.496 21.712-48.496 48.496s21.712 48.496 48.496 48.496h179.060c26.784 0 48.496-21.712 48.496-48.496s-21.712-48.496-48.496-48.496zM959.65 354.156c-0.002 0 0 0 0 0h-179.060c-16.482 0.002-29.844 13.364-29.844 29.844s13.364 29.844 29.844 29.844c0.002 0 0 0 0 0h179.060c16.482 0 29.844-13.362 29.844-29.844 0-16.48-13.364-29.844-29.844-29.844zM124.366 115.402c-15.472 0-30.518 8.028-38.81 22.39-12.362 21.41-5.026 48.79 16.384 61.148l155.072 89.532c21.41 12.368 48.79 5.028 61.15-16.384 12.362-21.412 5.026-48.79-16.384-61.15l-155.072-89.53c-7.050-4.070-14.748-6.006-22.34-6.006zM744.632 488.448c-10.314 0-20.346 5.352-25.874 14.926-8.24 14.274-3.35 32.526 10.924 40.768l155.070 89.528c14.272 8.236 32.526 3.352 40.768-10.922 8.24-14.274 3.35-32.526-10.924-40.768l-155.070-89.528c-4.7-2.714-9.83-4.004-14.894-4.004zM288.136-44.716c-6.962 0-14.016 1.774-20.48 5.504-19.626 11.332-26.35 36.428-15.020 56.054l89.53 155.070c11.33 19.628 36.426 26.352 56.054 15.022 19.626-11.332 26.35-36.43 15.020-56.054l-89.53-155.072c-7.598-13.166-21.392-20.524-35.574-20.524zM646.266 586.758c-5.062 0-10.196 1.29-14.894 4.002-14.274 8.242-19.164 26.494-10.924 40.766l89.534 155.070c8.24 14.274 26.492 19.166 40.766 10.922 14.274-8.242 19.164-26.494 10.924-40.766l-89.532-155.070c-5.53-9.57-15.56-14.924-25.874-14.924z" />
<glyph unicode="&#xeb2d;" glyph-name="search" d="M1024 32l-300.486 300.486c28.384 53.576 44.486 114.66 44.486 179.514 0 212.078-171.922 384-384 384-212.076 0-384-171.922-384-384s171.922-384 384-384c64.854 0 125.938 16.102 179.514 44.486l300.486-300.486 160 160zM128 512c0 141.384 114.616 256 256 256s256-114.616 256-256-114.616-256-256-256-256 114.616-256 256z" />
<glyph unicode="&#xeb2e;" glyph-name="zoom-in" d="M1024 32l-300.486 300.486c28.384 53.576 44.486 114.66 44.486 179.514 0 212.078-171.922 384-384 384-212.076 0-384-171.922-384-384s171.922-384 384-384c64.854 0 125.938 16.102 179.514 44.486l300.486-300.486 160 160zM128 512c0 141.384 114.616 256 256 256s256-114.616 256-256-114.616-256-256-256-256 114.616-256 256zM576 576h-128v128h-128v-128h-128v-128h128v-128h128v128h128z" />
<glyph unicode="&#xeb4b;" glyph-name="key5" d="M960 512h-482.256c-44.264 76.516-126.99 128-221.744 128-141.384 0-256-114.616-256-256 0-141.382 114.616-256 256-256 94.754 0 177.478 51.484 221.744 128h34.256l64 64h64v-64h64l64 64h64v-64h64l128 128-64 128zM192 293.49c-49.988 0-90.51 40.524-90.51 90.51 0 49.988 40.522 90.51 90.51 90.51s90.51-40.522 90.51-90.51c0-49.986-40.522-90.51-90.51-90.51zM512 416v32h384l16-32h-400z" />
<glyph unicode="&#xeb4e;" glyph-name="lock2" d="M832 448h-64v192c0 141.384-114.616 256-256 256s-256-114.616-256-256v-192h-64c-35.2 0-64-28.8-64-64v-448c0-35.2 28.8-64 64-64h640c35.2 0 64 28.8 64 64v448c0 35.2-28.8 64-64 64zM512 64c-35.346 0-64 28.654-64 64s28.654 64 64 64 64-28.654 64-64-28.654-64-64-64zM640 448h-256v192c0 70.58 57.42 128 128 128s128-57.42 128-128v-192z" />
<glyph unicode="&#xeb57;" glyph-name="wrench3" d="M136.234 855.764l119.766-119.764-128-128-119.766 119.764c-5.348-17.65-8.234-36.368-8.234-55.764 0-106.042 85.96-192 192-192 19.394 0 38.114 2.884 55.764 8.232l368.47-368.468c-5.348-17.65-8.234-36.368-8.234-55.764 0-106.042 85.96-192 192-192 19.394 0 38.116 2.884 55.764 8.234l-119.764 119.766 128 128 119.764-119.766c5.348 17.652 8.236 36.37 8.236 55.766 0 106.042-85.962 192-192 192-19.396 0-38.118-2.886-55.766-8.236l-368.47 368.468c5.348 17.654 8.236 36.372 8.236 55.768 0 106.040-85.962 192-192 192-19.396 0-38.116-2.888-55.766-8.236z" />
<glyph unicode="&#xeb58;" glyph-name="equalizer" d="M448 768v16c0 26.4-21.6 48-48 48h-160c-26.4 0-48-21.6-48-48v-16h-192v-128h192v-16c0-26.4 21.6-48 48-48h160c26.4 0 48 21.6 48 48v16h576v128h-576zM256 640v128h128v-128h-128zM832 464c0 26.4-21.6 48-48 48h-160c-26.4 0-48-21.6-48-48v-16h-576v-128h576v-16c0-26.4 21.6-48 48-48h160c26.4 0 48 21.6 48 48v16h192v128h-192v16zM640 320v128h128v-128h-128zM448 144c0 26.4-21.6 48-48 48h-160c-26.4 0-48-21.6-48-48v-16h-192v-128h192v-16c0-26.4 21.6-48 48-48h160c26.4 0 48 21.6 48 48v16h576v128h-576v16zM256 0v128h128v-128h-128z" />
<glyph unicode="&#xeb5a;" glyph-name="equalizer3" d="M288 576h-128c-17.6 0-32-14.4-32-32v-64c0-17.6 14.4-32 32-32h128c17.6 0 32 14.4 32 32v64c0 17.6-14.4 32-32 32zM192 768h64v-160h-64zM192 416h64v-416h-64zM544 320h-128c-17.6 0-32-14.4-32-32v-64c0-17.6 14.4-32 32-32h128c17.602 0 32 14.4 32 32v64c0 17.6-14.398 32-32 32zM448.002 768h64v-416h-64zM448.002 160h64v-160h-64zM800 512h-128c-17.598 0-32-14.4-32-32v-64c0-17.6 14.402-32 32-32h128c17.602 0 32 14.4 32 32v64c0 17.6-14.398 32-32 32zM704 768h64v-224h-64zM704 352h64v-352h-64zM880 896h-800c-44.112 0-80-35.888-80-80v-864c0-44.112 35.888-80 80-80h800c44.112 0 80 35.888 80 80v864c0 44.112-35.888 80-80 80zM896-48c0-8.8-7.2-16-16-16h-800c-8.8 0-16 7.2-16 16v864c0 8.8 7.2 16 16 16h800c8.8 0 16-7.2 16-16v-864z" />
<glyph unicode="&#xeb5e;" glyph-name="cog2" d="M1024 287.906v192.188l-146.774 24.462c-5.958 18.132-13.222 35.668-21.694 52.5l86.454 121.034-135.896 135.898-120.826-86.304c-16.91 8.554-34.538 15.888-52.768 21.902l-24.402 146.414h-192.188l-24.402-146.416c-18.23-6.014-35.858-13.348-52.766-21.902l-120.828 86.304-135.898-135.898 86.454-121.036c-8.47-16.83-15.734-34.366-21.692-52.498l-146.774-24.46v-192.188l147.118-24.52c5.96-17.968 13.21-35.348 21.642-52.030l-86.748-121.448 135.898-135.896 121.654 86.894c16.602-8.35 33.89-15.528 51.764-21.434l24.578-147.472h192.188l24.578 147.474c17.874 5.906 35.162 13.084 51.766 21.432l121.652-86.892 135.896 135.896-86.744 121.446c8.432 16.682 15.678 34.062 21.64 52.032l147.118 24.518zM512 256c-70.692 0-128 57.306-128 128 0 70.692 57.308 128 128 128 70.694 0 128-57.308 128-128 0-70.694-57.306-128-128-128z" />
<glyph unicode="&#xeb5f;" glyph-name="cog3" d="M633.152-128h-242.306l-24.404 146.424c-3.358 1.338-6.7 2.72-10.020 4.15l-120.792-86.282-171.338 171.334 86.116 120.562c-1.476 3.414-2.906 6.85-4.284 10.304l-146.124 24.358v242.304l145.736 24.288c1.422 3.59 2.9 7.164 4.426 10.71l-85.87 120.216 171.338 171.338 119.982-85.702c3.642 1.576 7.308 3.098 10.998 4.564l24.236 145.432h242.306l24.238-145.43c3.69-1.466 7.358-2.988 10.998-4.564l119.982 85.702 171.336-171.338-85.872-120.214c1.53-3.548 3.006-7.122 4.428-10.714l145.738-24.288v-242.304l-146.124-24.356c-1.378-3.456-2.806-6.89-4.284-10.302l86.116-120.562-171.336-171.336-120.794 86.282c-3.322-1.428-6.662-2.81-10.022-4.148l-24.404-146.428zM455.23-52h113.54l21.234 127.41 21.788 7.2c14.62 4.832 29.012 10.792 42.778 17.712l20.492 10.302 105.096-75.066 80.286 80.286-74.958 104.944 10.368 20.52c6.986 13.826 13.004 28.292 17.882 42.998l7.216 21.748 127.048 21.176v113.542l-126.804 21.134-7.178 21.84c-4.876 14.846-10.908 29.442-17.926 43.38l-10.316 20.5 74.666 104.53-80.286 80.288-104.382-74.558-20.524 10.384c-13.996 7.082-28.666 13.168-43.602 18.096l-21.804 7.192-21.074 126.442h-113.54l-21.074-126.444-21.804-7.192c-14.93-4.926-29.598-11.014-43.598-18.098l-20.524-10.384-104.384 74.56-80.288-80.288 74.666-104.532-10.316-20.498c-7.016-13.942-13.046-28.536-17.924-43.38l-7.176-21.842-126.808-21.132v-113.54l127.052-21.178 7.214-21.752c4.874-14.692 10.89-29.156 17.882-42.992l10.37-20.52-74.962-104.948 80.288-80.284 105.098 75.068 20.494-10.308c13.754-6.918 28.146-12.876 42.77-17.71l21.788-7.2 21.236-127.406zM544 512h-64c-52.8 0-96-43.2-96-96v-64c0-52.8 43.2-96 96-96h64c52.8 0 96 43.2 96 96v64c0 52.8-43.2 96-96 96zM576 352c0-17.6-14.4-32-32-32h-64c-17.6 0-32 14.4-32 32v64c0 17.6 14.4 32 32 32h64c17.6 0 32-14.4 32-32v-64z" />
<glyph unicode="&#xeb66;" glyph-name="hammer-wrench" horiz-adv-x="1280" d="M492.556 191.446l146.89-146.89-116.676-149.824c-21.382-27.962-59.242-30.474-84.132-5.586l-101.49 101.492c-24.89 24.888-22.376 62.748 5.584 84.13l149.824 116.678zM1273.512 633.508l-153.512-153.51-192 192 153.512 153.51c-18.488 4.244-37.738 6.49-57.512 6.49-141.384 0-256-114.616-256-256 0-50.996 14.916-98.506 40.618-138.416l-142.908-111.292-217.71 217.708 288 288h-320l-142.058-142.058-14.060 14.058h-67.882v-67.882l14.058-14.058-206.058-206.060 160-160 192 192 576-575.996 96 95.996-249.708 249.71 111.292 142.908c39.908-25.702 87.42-40.618 138.416-40.618 141.384 0 256 114.616 256 256 0 19.774-2.246 39.024-6.488 57.51z" />
<glyph unicode="&#xeb69;" glyph-name="screwdriver2" d="M1014.512 105.488l-217.79 217.79c-41.53-9.522-86.882 1.864-119.232 34.212-32.35 32.35-43.734 77.704-34.212 119.232l-25.79 25.79c-22.060 22.062-76.82 4.308-130.744-39.516l-294.744 294.744-32 74.26-102.464 64-57.536-57.536 64-102.464 74.26-32 294.746-294.744c-43.826-53.926-61.58-108.684-39.52-130.744 0.006-0.006 0.012-0.010 0.018-0.016l25.774-25.774c41.53 9.522 86.882-1.862 119.232-34.212 32.352-32.352 43.736-77.704 34.212-119.232l217.788-217.79c25.952-25.95 97.13 3.158 158.988 65.016 61.856 61.856 90.962 133.038 65.014 158.984zM890.87 5.13c-7.42-7.42-17.144-11.13-26.87-11.13s-19.45 3.71-26.87 11.13l-320 320c-14.842 14.84-14.842 38.898 0 53.738 14.84 14.84 38.898 14.84 53.738 0l320-320c14.842-14.838 14.842-38.898 0.002-53.738z" />
<glyph unicode="&#xeb6f;" glyph-name="aid-kit2" d="M896 640h-192v128c0 35.2-28.8 64-64 64h-256c-35.202 0-64-28.8-64-64v-128h-192c-70.4 0-128-57.6-128-128v-512c0-70.4 57.6-128 128-128h768c70.398 0 128 57.6 128 128v512c0 70.4-57.602 128-128 128zM384 768h256v-128h-256v128zM960 0c0-35.29-28.71-64-64-64h-768c-35.29 0-64 28.71-64 64v512c0 35.29 28.71 64 64 64h768c35.29 0 64-28.71 64-64v-512zM768 192h-192v-192h-128v192h-192v128h192v192h128v-192h192z" />
<glyph unicode="&#xeb75;" glyph-name="bug" d="M960 576l64 128v128l-96-192h-113.78c-8.548 9.378-21.106 18.342-39.46 28.622l-141.52 70.754c-31.48 15.746-86.040 28.624-121.24 28.624-35.204 0-89.762-12.878-121.246-28.626l-141.516-70.754c-18.362-10.28-30.914-19.246-39.462-28.622h-113.776l-96 192.002v-128l64-128h128v-128l-192-64v-64l192 64v-192h-64l-128-320h64l102.398 256h33.424c8.894-24.96 24.482-49.338 42.148-63.468l220.044-176.042c13.75-10.996 31.866-16.49 49.986-16.49 18.114 0 36.226 5.494 49.97 16.49l220.044 176.042c17.67 14.13 33.256 38.508 42.148 63.468h33.438l102.4-256h64l-128 320h-64v192l192-64v64l-192 64v128h128zM544 0h-64v640h64v-640zM640 771.558v60.442c0 35.2-28.8 64-64 64h-128c-35.204 0-64-28.8-64-64v-60.442c36.258 16.21 90.568 28.442 128 28.442 37.426 0 91.73-12.232 128-28.442z" />
<glyph unicode="&#xeb79;" glyph-name="pill" d="M939.646 811.646c-56.228 56.23-129.948 84.354-203.646 84.354-73.714 0-147.404-28.112-203.646-84.354l-448-448c-112.47-112.47-112.472-294.822 0-407.292 56.236-56.236 129.942-84.354 203.646-84.354s147.412 28.118 203.644 84.354l448 448c112.474 112.47 112.474 294.822 0.002 407.292zM457.374 630.626l128 128c12.496 12.498 32.758 12.498 45.254 0 12.498-12.496 12.498-32.758 0-45.254l-128-128c-6.248-6.248-14.438-9.372-22.628-9.372s-16.378 3.124-22.626 9.374c-12.498 12.496-12.498 32.756 0 45.252zM432.25 15.75c-38.53-38.53-89.76-59.75-144.25-59.75s-105.718 21.22-144.25 59.75c-38.53 38.532-59.75 89.76-59.75 144.25s21.218 105.718 59.75 144.25l208 208 288.5-288.5-208-208z" />
<glyph unicode="&#xeb84;" glyph-name="stats-dots" d="M128 0h896v-128h-1024v1024h128zM288 64c-53.020 0-96 42.98-96 96s42.98 96 96 96c2.828 0 5.622-0.148 8.388-0.386l103.192 171.986c-9.84 15.070-15.58 33.062-15.58 52.402 0 53.020 42.98 96 96 96s96-42.98 96-96c0-19.342-5.74-37.332-15.58-52.402l103.192-171.986c2.766 0.238 5.56 0.386 8.388 0.386 2.136 0 4.248-0.094 6.35-0.23l170.356 298.122c-10.536 15.408-16.706 34.036-16.706 54.11 0 53.020 42.98 96 96 96s96-42.98 96-96c0-53.020-42.98-96-96-96-2.14 0-4.248 0.094-6.35 0.232l-170.356-298.124c10.536-15.406 16.706-34.036 16.706-54.11 0-53.020-42.98-96-96-96s-96 42.98-96 96c0 19.34 5.74 37.332 15.578 52.402l-103.19 171.984c-2.766-0.238-5.56-0.386-8.388-0.386s-5.622 0.146-8.388 0.386l-103.192-171.986c9.84-15.068 15.58-33.060 15.58-52.4 0-53.020-42.98-96-96-96z" />
<glyph unicode="&#xeb9b;" glyph-name="stars" horiz-adv-x="1088" d="M288.002 438.278l59.276-182.434h191.82l-155.188-112.75 59.278-182.434-155.186 112.748-155.188-112.748 59.278 182.434-155.19 112.75h191.824zM544 886.278l59.278-182.434h191.82l-155.188-112.75 59.278-182.434-155.188 112.748-155.186-112.748 59.278 182.434-155.19 112.75h191.824zM800 438.278l59.278-182.434h191.82l-155.188-112.75 59.278-182.434-155.188 112.748-155.188-112.748 59.278 182.434-155.188 112.75h191.824z" />
<glyph unicode="&#xeb9d;" glyph-name="medal" d="M832 576c0 50.638-39.214 92.090-88.93 95.712 32.592 37.716 31.012 94.754-4.796 130.562-35.806 35.808-92.846 37.388-130.558 4.798-3.626 49.714-45.076 88.928-95.716 88.928s-92.088-39.214-95.712-88.928c-37.714 32.59-94.754 31.008-130.562-4.798-35.806-35.808-37.388-92.846-4.798-130.562-49.712-3.624-88.928-45.074-88.928-95.712s39.214-92.088 88.928-95.712c-32.59-37.714-31.008-94.754 4.798-130.56 26.588-26.588 64.878-34.288 98.274-23.154v-422.574l128 128 128-128v422.572c33.396-11.13 71.686-3.436 98.274 23.154 35.808 35.806 37.388 92.844 4.796 130.56 49.716 3.624 88.93 45.076 88.93 95.714zM512 384c-106.040 0-192 85.96-192 192s85.96 192 192 192c106.040 0 192-85.96 192-192s-85.96-192-192-192z" />
<glyph unicode="&#xeba5;" glyph-name="trophy3" d="M832 704v128h-640v-128h-192v-128c0-106.038 85.958-192 192-192 20.076 0 39.43 3.086 57.62 8.802 46.174-66.008 116.608-113.796 198.38-130.396v-198.406h-64c-70.694 0-128-57.306-128-128h512c0 70.694-57.306 128-128 128h-64v198.406c81.772 16.6 152.206 64.386 198.38 130.396 18.19-5.716 37.544-8.802 57.62-8.802 106.042 0 192 85.962 192 192v128h-192zM192 460c-63.962 0-116 52.038-116 116v64h116v-64c0-40.186 7.43-78.632 20.954-114.068-6.802-1.246-13.798-1.932-20.954-1.932zM609.414 524.806l61.020-186.416-158.434 115.642-158.432-115.642 61.018 186.416-158.936 114.944 196.144-0.428 60.206 186.678 60.208-186.678 196.142 0.428-158.936-114.944zM948 576c0-63.962-52.038-116-116-116-7.156 0-14.152 0.686-20.954 1.932 13.524 35.436 20.954 73.882 20.954 114.068v64h116v-64z" />
<glyph unicode="&#xeba8;" glyph-name="trophy4" d="M832 768h-640l-192-256 512-576-142.222 512h284.446l-142.224-512 512 576-192 256zM80 512l146.042 194.724 108.18-194.724h-254.222zM369.778 512l106.666 192h71.11l106.668-192h-284.444zM797.958 706.724l146.042-194.724h-254.222l108.18 194.724z" />
<glyph unicode="&#xeba9;" glyph-name="gift" d="M771.516 576c18.126 12.88 35.512 27.216 51.444 43.148 33.402 33.402 55.746 74.5 62.912 115.722 7.858 45.186-3.672 87.14-31.63 115.1-22.3 22.298-52.51 34.086-87.364 34.086-49.632 0-101.922-23.824-143.46-65.362-66.476-66.476-105.226-158.238-126.076-223.722-15.44 65.802-46.206 154.644-106.018 214.458-32.094 32.092-73.114 48.57-111.846 48.57-31.654 0-61.78-11.004-84.26-33.486-49.986-49.988-43.232-137.786 15.086-196.104 20.792-20.792 45.098-38.062 70.72-52.412h-217.024v-256h64v-448h768v448.002h64v256h-188.484zM674.326 767.782c27.724 27.724 62.322 44.274 92.55 44.274 10.7 0 25.708-2.254 36.45-12.998 26.030-26.028 11.412-86.308-31.28-128.998-43.946-43.946-103.060-74.168-154.432-94.060h-50.672c18.568 57.548 52.058 136.456 107.384 191.782zM233.934 735.11c-0.702 9.12-0.050 26.248 12.196 38.494 10.244 10.244 23.788 12.396 33.348 12.396v0c21.258 0 43.468-10.016 60.932-27.48 33.872-33.872 61.766-87.772 80.668-155.876 0.51-1.84 1.008-3.67 1.496-5.486-1.816 0.486-3.646 0.984-5.486 1.496-68.104 18.904-122.002 46.798-155.874 80.67-15.828 15.826-25.77 36.16-27.28 55.786zM448-64h-256v416h256v-416zM448 384h-320v128h320v-128zM832-64h-256v416h256v-416zM896 384h-320v128h320v-128z" />
<glyph unicode="&#xebc8;" glyph-name="coffee" d="M864 768h-44.222l-55.156 110.31c-5.42 10.842-16.5 17.69-28.622 17.69h-448c-12.122 0-23.202-6.848-28.622-17.69l-55.154-110.31h-44.224c-17.672 0-32-14.328-32-32v-192c0-17.672 14.328-32 32-32h32c0.002-1.108 0.056-2.224 0.174-3.35l64-608c1.718-16.286 15.45-28.65 31.826-28.65h448c16.376 0 30.11 12.364 31.824 28.65l64 608c0.12 1.124 0.174 2.242 0.174 3.35h32.002c17.674 0 32 14.328 32 32v192c0 17.672-14.326 32-32 32zM307.778 832h408.446l32-64h-472.446l32 64zM316.81-64l-20.21 192h430.804l-20.21-192h-390.384zM448 256c0 35.346 28.654 64 64 64s64-28.654 64-64-28.654-64-64-64c-35.346 0-64 28.654-64 64zM754.35 384h-484.7l-13.474 128h511.648l-13.474-128zM832 576h-640v128h607.826c0.066 0 0.132-0.006 0.2-0.006 0.040 0 0.080 0.006 0.12 0.006h31.854v-128z" />
<glyph unicode="&#xebcb;" glyph-name="leaf2" d="M1011.328 761.504c-110.752 83.928-281.184 134.034-455.91 134.034-216.12 0-392.226-75.456-483.16-207.020-42.708-61.79-66.33-134.958-70.208-217.474-4.136-88.020 14.37-187.198 55.002-294.776-37.478-91.374-57.868-185.444-57.868-272.268 0-17.674 14.328-32 32-32s32 14.326 32 32c0 76.682 18.726 162.256 52.38 245.424 94.22-17.422 173.576-25.942 241.648-25.942 117.678 0 201.37 25.46 263.388 80.124 55.568 48.978 86.198 114.786 118.624 184.456 49.524 106.408 105.654 227.010 268.654 320.152 9.33 5.332 15.362 14.992 16.056 25.716 0.694 10.726-4.040 21.082-12.606 27.574zM681.2 415.070c-30.8-66.178-57.4-123.332-102.918-163.452-49.642-43.756-119.888-64.134-221.070-64.134-60.45 0-130.996 7.25-214.474 22.052 15.256 30.482 32.458 60.248 51.46 88.686 44.304 66.302 96.344 123.598 154.674 170.298 63.004 50.442 131.748 87.058 204.324 108.83 16.928 5.078 26.534 22.918 21.456 39.846-5.078 16.926-22.91 26.54-39.846 21.456-80.474-24.142-156.49-64.574-225.932-120.17-63.454-50.8-119.938-112.944-167.888-184.702-16.16-24.184-31.060-49.076-44.672-74.428-23.064 75.838-33.29 145.834-30.334 208.688 3.308 70.368 23.132 132.304 58.926 184.088 40.696 58.878 101.33 104.512 180.214 135.634 72.59 28.638 159.142 43.776 250.298 43.776 139.012 0 278.818-35.522 377.598-94.43-148.128-99.246-205.192-221.86-251.816-322.038z" />
<glyph unicode="&#xebda;" glyph-name="rocket" d="M704 832l-320-320h-192l-192-256c0 0 203.416 56.652 322.066 30.084l-322.066-414.084 421.902 328.144c58.838-134.654-37.902-328.144-37.902-328.144l256 192v192l320 320 64 320-320-64z" />
<glyph unicode="&#xebf7;" glyph-name="lamp8" d="M512 832c68.51 0 132.896-26.696 181.302-75.17 48.266-48.334 74.792-112.522 74.698-180.738-0.112-78.708-31.016-120.828-63.734-165.422-30.048-40.954-64.108-87.372-64.266-154.518-0.076-32.636-11.276-41.41-22.738-47.602-20.336-10.982-55.752-16.55-105.262-16.55-76.074 0-105.296 13.286-116.416 24.432-2.88 2.888-11.65 11.678-11.584 39.416 0.16 67.41-34.11 113.942-64.346 154.996-32.792 44.524-63.764 86.578-63.654 165.066 0.098 68.45 26.764 132.774 75.086 181.122 48.318 48.344 112.568 74.968 180.914 74.968zM512 896c-176.732 0-319.75-143.268-320-320s128.25-213.96 128-320 85.962-128 192-128c106.040 0 191.75 21.96 192 128s127.75 143.268 128 320-143.27 320-320 320v0zM512 64c-78.986 0-144.596 17.554-157.636 97.008-1.548-10.724-2.364-21.752-2.364-33.008 0-106.040 71.634-128 160-128s160 21.96 160 128c0 11.256-0.816 22.284-2.364 33.008-13.042-79.454-78.65-97.008-157.636-97.008zM512-64c-63.188 0-115.676 17.554-126.108 97.008-1.24-10.724-1.892-21.752-1.892-33.008 0-106.040 57.308-128 128-128 70.694 0 128 21.96 128 128 0 11.256-0.652 22.284-1.89 33.008-10.434-79.454-62.92-97.008-126.11-97.008z" />
<glyph unicode="&#xebfa;" glyph-name="bin" d="M128 576v-640c0-35.2 28.8-64 64-64h576c35.2 0 64 28.8 64 64v640h-704zM320 0h-64v448h64v-448zM448 0h-64v448h64v-448zM576 0h-64v448h64v-448zM704 0h-64v448h64v-448zM848 768h-208v80c0 26.4-21.6 48-48 48h-224c-26.4 0-48-21.6-48-48v-80h-208c-26.4 0-48-21.6-48-48v-80h832v80c0 26.4-21.6 48-48 48zM576 768h-192v63.198h192v-63.198z" />
<glyph unicode="&#xec48;" glyph-name="switch" d="M640 749.412v-135.958c36.206-15.804 69.5-38.408 98.274-67.18 60.442-60.44 93.726-140.8 93.726-226.274s-33.286-165.834-93.726-226.274c-60.44-60.44-140.798-93.726-226.274-93.726s-165.834 33.286-226.274 93.726c-60.44 60.44-93.726 140.8-93.726 226.274s33.286 165.834 93.726 226.274c28.774 28.774 62.068 51.378 98.274 67.182v135.956c-185.048-55.080-320-226.472-320-429.412 0-247.424 200.578-448 448-448 247.424 0 448 200.576 448 448 0 202.94-134.95 374.332-320 429.412zM448 896h128v-512h-128z" />
<glyph unicode="&#xec4a;" glyph-name="power-cord" d="M1024 613.5l-90.506 90.5-178.746-178.752-101.5 101.502 178.75 178.75-90.5 90.5-178.75-178.75-114.748 114.75-86.626-86.624 512.002-512 86.624 86.622-114.752 114.752 178.752 178.75zM794.040 222.21l-443.824 443.824c-95.818-114.904-204.52-292.454-129.396-445.216l-132.248-132.248c-31.112-31.114-31.112-82.024 0-113.136l14.858-14.858c31.114-31.114 82.026-31.114 113.138 0l132.246 132.244c152.764-75.132 330.318 33.566 445.226 129.39z" />
<glyph unicode="&#xec4f;" glyph-name="clipboard3" d="M928 768h-288c0 70.692-57.306 128-128 128-70.692 0-128-57.308-128-128h-288c-17.672 0-32-14.328-32-32v-832c0-17.674 14.328-32 32-32h832c17.674 0 32 14.326 32 32v832c0 17.672-14.326 32-32 32zM512 832c35.346 0 64-28.654 64-64s-28.654-64-64-64c-35.346 0-64 28.654-64 64s28.654 64 64 64zM896-64h-768v768h128v-96c0-17.672 14.328-32 32-32h448c17.674 0 32 14.328 32 32v96h128v-768zM736 320h-448c-17.672 0-32 14.328-32 32s14.328 32 32 32h448c17.674 0 32-14.328 32-32s-14.326-32-32-32zM736 192h-448c-17.672 0-32 14.326-32 32s14.328 32 32 32h448c17.674 0 32-14.326 32-32s-14.326-32-32-32zM736 64h-448c-17.672 0-32 14.326-32 32s14.328 32 32 32h448c17.674 0 32-14.326 32-32s-14.326-32-32-32z" />
<glyph unicode="&#xec56;" glyph-name="list" d="M0 896h256v-256h-256zM384 832h640v-128h-640zM0 512h256v-256h-256zM384 448h640v-128h-640zM0 128h256v-256h-256zM384 64h640v-128h-640z" />
<glyph unicode="&#xec5a;" glyph-name="grid" d="M0 896h256v-256h-256zM384 896h256v-256h-256zM768 896h256v-256h-256zM0 512h256v-256h-256zM384 512h256v-256h-256zM768 512h256v-256h-256zM0 128h256v-256h-256zM384 128h256v-256h-256zM768 128h256v-256h-256z" />
<glyph unicode="&#xec5f;" glyph-name="grid6" d="M0 896h448v-448h-448zM576 896h448v-448h-448zM0 320h448v-448h-448zM576 320h448v-448h-448z" />
<glyph unicode="&#xec60;" glyph-name="grid7" d="M0 896v-1024h1024v1024h-1024zM960 576h-256v256h256v-256zM384 256v256h256v-256h-256zM640 192v-256h-256v256h256zM320 256h-256v256h256v-256zM384 576v256h256v-256h-256zM704 512h256v-256h-256v256zM320 832v-256h-256v256h256zM64 192h256v-256h-256v256zM704-64v256h256v-256h-256z" />
<glyph unicode="&#xec62;" glyph-name="tree6" d="M976 128h-16v208c0 61.756-50.242 112-112 112h-272v128h16c26.4 0 48 21.6 48 48v160c0 26.4-21.6 48-48 48h-160c-26.4 0-48-21.6-48-48v-160c0-26.4 21.6-48 48-48h16v-128h-272c-61.756 0-112-50.244-112-112v-208h-16c-26.4 0-48-21.6-48-48v-160c0-26.4 21.6-48 48-48h160c26.4 0 48 21.6 48 48v160c0 26.4-21.6 48-48 48h-16v192h256v-192h-16c-26.4 0-48-21.6-48-48v-160c0-26.4 21.6-48 48-48h160c26.4 0 48 21.6 48 48v160c0 26.4-21.6 48-48 48h-16v192h256v-192h-16c-26.4 0-48-21.6-48-48v-160c0-26.4 21.6-48 48-48h160c26.4 0 48 21.6 48 48v160c0 26.4-21.6 48-48 48z" />
<glyph unicode="&#xec6e;" glyph-name="menu7" d="M64 704h896v-128h-896v128zM64 448h896v-128h-896v128zM64 192h896v-128h-896v128z" />
<glyph unicode="&#xec76;" glyph-name="cloud2" d="M1024 238.458c0 82.090-56.678 150.9-132.996 169.48-3.242 128.7-108.458 232.062-237.862 232.062-75.792 0-143.266-35.494-186.854-90.732-24.442 31.598-62.69 51.96-105.708 51.96-73.81 0-133.642-59.874-133.642-133.722 0-6.436 0.48-12.76 1.364-18.954-11.222 2.024-22.766 3.138-34.57 3.138-106.998 0.002-193.732-86.786-193.732-193.842 0-107.062 86.734-193.848 193.73-193.848l656.262 0.012c96.138 0.184 174.008 78.212 174.008 174.446z" />
<glyph unicode="&#xec7a;" glyph-name="download2" d="M160 448l352-352 352 352h-224v384h-256v-384zM896 384v-384h-768v384h-128v-416c0-52.8 43.2-96 96-96h832c52.8 0 96 43.2 96 96v416h-128z" />
<glyph unicode="&#xec7c;" glyph-name="upload2" d="M160 512l352 352 352-352h-224v-384h-256v384zM896 384v-384h-768v384h-128v-416c0-52.8 43.2-96 96-96h832c52.8 0 96 43.2 96 96v416h-128z" />
<glyph unicode="&#xec94;" glyph-name="earth2" d="M512 896c-282.77 0-512-229.23-512-512s229.23-512 512-512 512 229.23 512 512-229.23 512-512 512zM352 802.548v-34.548l-160-160h-68.050c51.126 88.378 131.58 157.648 228.050 194.548zM512 256l-228.692-257.278c-9.328 5.546-18.434 11.424-27.308 17.616v207.662l-128 96v160c0 17.672 14.328 32 32 32h96c0 0 96-128 256-160v-96zM899.166 405.256c-15.832 53.238-29.504 58.412-99.166 82.096v0.002c-23.828 7.47-46.256 20.63-65.136 39.51-62.482 62.484-62.482 163.79 0 226.274 4.2 4.198 8.588 8.080 13.116 11.712 127.262-79.022 212.020-220.026 212.020-380.85 0-82.95-22.57-160.618-61.866-227.24 16.474 106.492 10.398 191.826 1.032 248.496z" />
<glyph unicode="&#xec98;" glyph-name="link2" d="M320 192c17.6-17.6 47.274-16.726 65.942 1.942l316.118 316.116c18.668 18.668 19.54 48.342 1.94 65.942s-47.274 16.726-65.942-1.942l-316.116-316.116c-18.668-18.668-19.542-48.342-1.942-65.942zM476.888 220.888c4.56-9.050 6.99-19.16 6.99-29.696 0-17.616-6.744-34.060-18.992-46.308l-163.382-163.382c-12.248-12.248-28.694-18.992-46.308-18.992s-34.060 6.744-46.308 18.992l-99.382 99.382c-12.248 12.248-18.992 28.694-18.992 46.308s6.744 34.060 18.992 46.308l163.382 163.382c12.248 12.248 28.694 18.994 46.308 18.994 10.536 0 20.644-2.43 29.696-6.99l65.338 65.338c-27.87 21.41-61.44 32.16-95.034 32.16-39.986 0-79.972-15.166-110.308-45.502l-163.382-163.382c-60.67-60.67-60.67-159.948 0-220.618l99.382-99.382c30.334-30.332 70.32-45.5 110.306-45.5 39.988 0 79.974 15.168 110.308 45.502l163.382 163.382c55.82 55.82 60.238 144.298 13.344 205.344l-65.34-65.34zM978.498 751.116l-99.382 99.382c-30.334 30.336-70.32 45.502-110.308 45.502-39.986 0-79.972-15.166-110.308-45.502l-163.382-163.382c-55.82-55.82-60.238-144.298-13.342-205.342l65.338 65.34c-4.558 9.050-6.988 19.16-6.988 29.694 0 17.616 6.744 34.060 18.992 46.308l163.382 163.382c12.248 12.248 28.694 18.994 46.308 18.994s34.060-6.746 46.308-18.994l99.382-99.382c12.248-12.248 18.992-28.694 18.992-46.308s-6.744-34.060-18.992-46.308l-163.382-163.382c-12.248-12.248-28.694-18.992-46.308-18.992-10.536 0-20.644 2.43-29.696 6.99l-65.338-65.338c27.872-21.41 61.44-32.16 95.034-32.16 39.988 0 79.974 15.168 110.308 45.502l163.382 163.382c60.67 60.666 60.67 159.944 0 220.614z" />
<glyph unicode="&#xeca6;" glyph-name="flag6" d="M256 831c38.786-1.572 67.372-5.362 92.73-13.806 38.326-12.762 71.348-38.018 110.418-84.448 108.33-128.728 217.85-183.652 366.214-183.652 15.458 0 31.534 0.614 48.294 1.85-20.18-23.744-41.41-46.932-63.458-68.118-30.906-29.698-60.998-53.042-89.44-69.384-29.98-17.224-59.094-27.218-86.526-29.702-3.62-0.328-7.066-0.486-10.542-0.486-33.64 0-59.492 15.634-98.884 41.146-45.148 29.236-101.336 65.624-183.092 65.624-27.384 0-55.812-4.068-85.718-12.322v353.298zM192 896v-512c61.174 30.524 109.474 42.022 149.718 42.022 122.682 0 170.734-106.768 281.976-106.768 5.296 0 10.708 0.24 16.304 0.746 159.458 14.442 294.062 199.128 384 320-76.41-17.67-141.452-26.906-198.636-26.906-133.44 0-224.17 50.258-317.246 160.86-96.354 114.5-169.378 122.046-316.116 122.046v0zM0 896h128v-1024h-128z" />
<glyph unicode="&#xeca9;" glyph-name="attachment" d="M665.832 568.952l-64.952 64.922-324.81-324.742c-53.814-53.792-53.814-141.048 0-194.844 53.804-53.792 141.060-53.792 194.874 0l389.772 389.708c89.714 89.662 89.714 235.062 0 324.726-89.666 89.704-235.112 89.704-324.782 0l-409.23-409.178c-0.29-0.304-0.612-0.576-0.876-0.846-125.102-125.096-125.102-327.856 0-452.906 125.054-125.056 327.868-125.056 452.988 0 0.274 0.274 0.516 0.568 0.82 0.876l0.032-0.034 279.332 279.292-64.986 64.92-279.33-279.262c-0.296-0.268-0.564-0.57-0.846-0.844-89.074-89.058-233.98-89.058-323.076 0-89.062 89.042-89.062 233.922 0 322.978 0.304 0.304 0.604 0.582 0.888 0.846l-0.046 0.060 409.28 409.166c53.712 53.738 141.144 53.738 194.886 0 53.712-53.734 53.712-141.148 0-194.84l-389.772-389.7c-17.936-17.922-47.054-17.922-64.972 0-17.894 17.886-17.894 47.032 0 64.92l324.806 324.782z" />
<glyph unicode="&#xecb5;" glyph-name="bookmark3" d="M192 896v-1024l320 320 320-320v1024h-640zM768 26.51l-256 256-256-256v805.49h512v-805.49z" />
<glyph unicode="&#xecdd;" glyph-name="star-empty" d="M808.654-113.706c-6.578 0-13.156 2.024-18.754 6.072l-277.9 201.006-277.9-201.004c-11.228-8.124-26.408-8.092-37.606 0.070-11.198 8.166-15.868 22.61-11.568 35.784l106.056 325.026-277.736 200.92c-11.242 8.132-15.96 22.584-11.688 35.784 4.274 13.2 16.568 22.142 30.444 22.142l343.458 0.012 106.12 325.128c4.296 13.164 16.574 22.072 30.42 22.072s26.124-8.908 30.42-22.072l106.122-325.128 343.458-0.012c13.876 0 26.168-8.942 30.442-22.142 4.276-13.2-0.446-27.65-11.688-35.784l-277.734-200.922 106.056-325.026c4.298-13.174-0.372-27.618-11.568-35.784-5.618-4.092-12.234-6.142-18.854-6.142zM130.826 448.098l216.57-156.674c11.264-8.146 15.978-22.636 11.666-35.852l-82.788-253.716 216.974 156.936c11.192 8.096 26.316 8.098 37.508 0l216.972-156.934-82.788 253.714c-4.312 13.214 0.402 27.706 11.666 35.852l216.568 156.674-267.852 0.008c-13.846 0-26.122 8.908-30.418 22.070l-82.904 254-82.904-253.998c-4.296-13.164-16.572-22.070-30.42-22.070l-267.85-0.010z" />
<glyph unicode="&#xecde;" glyph-name="star-empty2" d="M1022.442 489.952c-4.274 13.2-16.566 22.142-30.442 22.142l-343.458 0.012-106.122 325.128c-4.296 13.164-16.572 22.072-30.42 22.072s-26.124-8.908-30.42-22.072l-106.12-325.128-343.46-0.012c-13.876 0-26.168-8.942-30.444-22.142-4.274-13.2 0.446-27.65 11.688-35.784l277.736-200.922-106.056-325.026c-4.298-13.174 0.37-27.618 11.568-35.784 11.198-8.162 26.378-8.194 37.606-0.070l277.902 201.006 277.9-201.004c5.598-4.048 12.176-6.072 18.754-6.072 6.62 0 13.236 2.048 18.854 6.142 11.198 8.166 15.868 22.61 11.568 35.784l-106.056 325.024 277.734 200.922c11.242 8.132 15.962 22.582 11.688 35.784zM676.606 291.424c-11.264-8.146-15.978-22.636-11.666-35.852l82.788-253.714-216.972 156.934c-5.596 4.048-12.176 6.072-18.754 6.072v559.312l82.904-253.998c4.296-13.164 16.572-22.070 30.418-22.070l267.852-0.008-216.57-156.676z" />
<glyph unicode="&#xecdf;" glyph-name="star-full" d="M1022.442 489.952c-4.274 13.2-16.566 22.142-30.442 22.142l-343.458 0.012-106.122 325.128c-4.296 13.164-16.572 22.072-30.42 22.072s-26.124-8.908-30.42-22.072l-106.12-325.128-343.46-0.012c-13.876 0-26.168-8.942-30.444-22.142-4.274-13.2 0.446-27.65 11.688-35.784l277.736-200.922-106.056-325.026c-4.298-13.174 0.37-27.618 11.568-35.784 11.198-8.162 26.378-8.194 37.606-0.070l277.902 201.006 277.9-201.004c5.598-4.048 12.176-6.072 18.754-6.072 6.62 0 13.236 2.048 18.854 6.142 11.198 8.166 15.868 22.61 11.568 35.784l-106.056 325.024 277.734 200.922c11.242 8.132 15.962 22.582 11.688 35.784z" />
<glyph unicode="&#xece6;" glyph-name="heart3" d="M1024 537.844c0-86.362-37.218-164.030-96.49-217.844h0.49l-320-320c-32-32-64-64-96-64s-64 32-96 64l-319.51 320c-59.272 53.814-96.49 131.482-96.49 217.844 0 162.458 131.698 294.156 294.156 294.156 86.362 0 164.030-37.218 217.844-96.49 53.814 59.272 131.482 96.49 217.844 96.49 162.456 0 294.156-131.698 294.156-294.156z" />
<glyph unicode="&#xece7;" glyph-name="heart4" d="M1024 537.844c0 162.458-131.7 294.156-294.156 294.156-86.362 0-164.030-37.218-217.844-96.49-53.814 59.272-131.482 96.49-217.844 96.49-162.458 0-294.156-131.698-294.156-294.156 0-86.362 37.218-164.030 96.49-217.844h-0.49l320-320c32-32 64-64 96-64s64 32 96 64l319.51 320c59.272 53.814 96.49 131.482 96.49 217.844zM841.468 414.768l-323.978-324.258c-1.678-1.678-3.532-3.532-5.49-5.48-1.96 1.95-3.814 3.802-5.49 5.48l-323.978 324.256c-35.166 31.928-54.532 75.638-54.532 123.078 0 91.618 74.538 166.156 166.156 166.156 47.44 0 91.15-19.366 123.076-54.532l94.768-104.38 94.768 104.378c31.928 35.168 75.636 54.534 123.076 54.534 91.618 0 166.156-74.538 166.156-166.156 0-47.44-19.368-91.15-54.532-123.076z" />
<glyph unicode="&#xecf2;" glyph-name="thumbs-up2" d="M992 224c0 32.916-17.956 61.954-45.308 79.248 8.444 14.292 13.308 30.952 13.308 48.752 0 53.020-42.98 96-96 96h-187.808c22.456 80.91 33.808 164.592 33.808 250 0 73.888-60.112 134-134 134-73.886 0-134-60.112-134-134 0-103.972-38.722-183.95-115.090-237.71-21-14.784-44.742-27.486-70.91-38.066v89.776h-256v-640h256v62.998c59.89-3.932 88.968-18.922 117.19-33.494 28.088-14.506 57.132-29.504 106.81-29.504h320c53.020 0 96 42.98 96 96 0 12.498-2.414 24.426-6.76 35.376 40.77 11.086 70.76 48.342 70.76 92.624 0 17.8-4.864 34.46-13.308 48.752 27.352 17.294 45.308 46.332 45.308 79.248zM96-64c-17.672 0-32 14.326-32 32s14.328 32 32 32 32-14.326 32-32-14.328-32-32-32zM888 192h-56v-64h32c17.644 0 32-14.356 32-32s-14.356-32-32-32h-64v-64c17.644 0 32-14.356 32-32s-14.356-32-32-32h-320c-34.128 0-52.298 9.382-77.446 22.37-31.748 16.392-70.386 36.32-146.554 40.728v342.222c42.936 14.428 81.428 33.43 114.658 56.824 96.392 67.856 147.342 171.544 147.342 299.856 0 31.982 26.020 58 58 58s58-26.018 58-58c0-85.66-12.414-169.412-36.96-250-6.198-23.018-12.066-45.826-16.024-64h282.984c17.644 0 32-14.356 32-32s-14.356-32-32-32h-32v-64h56c21.682 0 40-14.654 40-32s-18.318-32-40-32z" />
<glyph unicode="&#xecf4;" glyph-name="thumbs-down2" d="M32 480c0-32.916 17.956-61.954 45.308-79.248-8.444-14.292-13.308-30.952-13.308-48.752 0-53.020 42.98-96 96-96h187.808c-22.456-80.91-33.808-164.592-33.808-250 0-73.888 60.112-134 134-134 73.886 0 134 60.112 134 134 0 103.972 38.722 183.95 115.090 237.71 21 14.784 44.742 27.486 70.91 38.066v-89.776h256v640h-256v-62.998c-59.89 3.932-88.968 18.922-117.19 33.494-28.088 14.506-57.132 29.504-106.81 29.504h-320c-53.020 0-96-42.98-96-96 0-12.498 2.414-24.426 6.76-35.376-40.77-11.086-70.76-48.342-70.76-92.624 0-17.8 4.864-34.46 13.308-48.752-27.352-17.294-45.308-46.332-45.308-79.248zM928 768c17.672 0 32-14.326 32-32s-14.328-32-32-32-32 14.326-32 32 14.328 32 32 32zM136 512h56v64h-32c-17.644 0-32 14.356-32 32s14.356 32 32 32h64v64c-17.644 0-32 14.356-32 32s14.356 32 32 32h320c34.128 0 52.298-9.382 77.446-22.37 31.748-16.392 70.386-36.32 146.554-40.728v-342.222c-42.936-14.428-81.428-33.43-114.658-56.824-96.392-67.856-147.342-171.544-147.342-299.856 0-31.982-26.020-58-58-58s-58 26.018-58 58c0 85.66 12.414 169.412 36.96 250 6.198 23.018 12.066 45.826 16.024 64h-282.984c-17.644 0-32 14.356-32 32s14.356 32 32 32h32v64h-56c-21.682 0-40 14.654-40 32s18.318 32 40 32z" />
<glyph unicode="&#xed01;" glyph-name="smile" d="M512-128c282.77 0 512 229.23 512 512s-229.23 512-512 512-512-229.23-512-512 229.23-512 512-512zM512 800c229.75 0 416-186.25 416-416s-186.25-416-416-416-416 186.25-416 416 186.25 416 416 416zM256 576c0 35.346 28.654 64 64 64s64-28.654 64-64c0-35.346-28.654-64-64-64s-64 28.654-64 64zM640 576c0 35.346 28.654 64 64 64s64-28.654 64-64c0-35.346-28.654-64-64-64s-64 28.654-64 64zM704.098 268.74l82.328-49.396c-55.962-93.070-157.916-155.344-274.426-155.344s-218.464 62.274-274.426 155.344l82.328 49.396c39.174-65.148 110.542-108.74 192.098-108.74s152.924 43.592 192.098 108.74z" />
<glyph unicode="&#xed05;" glyph-name="sad" d="M512-128c282.77 0 512 229.23 512 512s-229.23 512-512 512-512-229.23-512-512 229.23-512 512-512zM512 800c229.75 0 416-186.25 416-416s-186.25-416-416-416-416 186.25-416 416 186.25 416 416 416zM256 576c0 35.346 28.654 64 64 64s64-28.654 64-64c0-35.346-28.654-64-64-64s-64 28.654-64 64zM640 576c0 35.346 28.654 64 64 64s64-28.654 64-64c0-35.346-28.654-64-64-64s-64 28.654-64 64zM319.902 115.26l-82.328 49.396c55.962 93.070 157.916 155.344 274.426 155.344 116.508 0 218.462-62.274 274.426-155.344l-82.328-49.396c-39.174 65.148-110.542 108.74-192.098 108.74-81.558 0-152.924-43.592-192.098-108.74z" />
<glyph unicode="&#xed17;" glyph-name="neutral" d="M512-128c282.77 0 512 229.23 512 512s-229.23 512-512 512-512-229.23-512-512 229.23-512 512-512zM512 800c229.75 0 416-186.25 416-416s-186.25-416-416-416-416 186.25-416 416 186.25 416 416 416zM256 576c0-35.346 28.654-64 64-64s64 28.654 64 64-28.654 64-64 64-64-28.654-64-64zM640 576c0-35.346 28.654-64 64-64s64 28.654 64 64-28.654 64-64 64-64-28.654-64-64zM384 192h256v-64h-256v64z" />
<glyph unicode="&#xed4e;" glyph-name="notification" d="M512 800c-111.118 0-215.584-43.272-294.156-121.844s-121.844-183.038-121.844-294.156c0-111.118 43.272-215.584 121.844-294.156s183.038-121.844 294.156-121.844c111.118 0 215.584 43.272 294.156 121.844s121.844 183.038 121.844 294.156c0 111.118-43.272 215.584-121.844 294.156s-183.038 121.844-294.156 121.844zM512 896v0c282.77 0 512-229.23 512-512s-229.23-512-512-512c-282.77 0-512 229.23-512 512s229.23 512 512 512zM448 192h128v-128h-128zM448 704h128v-384h-128z" />
<glyph unicode="&#xed52;" glyph-name="question3" d="M576 128c0-35.346-28.654-64-64-64s-64 28.654-64 64 28.654 64 64 64 64-28.654 64-64zM512 896c-282.77 0-512-229.23-512-512s229.23-512 512-512 512 229.23 512 512-229.23 512-512 512zM512-32c-229.75 0-416 186.25-416 416s186.25 416 416 416 416-186.25 416-416-186.25-416-416-416zM512 255.75c-26.51 0-48 21.49-48 48v32c0 33.618 12.964 63.854 38.532 89.87 18.864 19.194 41.778 33.59 63.936 47.512 45.564 28.624 65.532 43.978 65.532 70.868 0 29.252-16.88 48.788-31.042 60.026-22.734 18.040-54.328 27.974-88.958 27.974-52.534 0-99.792-35.082-114.924-85.314-7.648-25.382-34.422-39.758-59.806-32.114-25.382 7.648-39.76 34.422-32.114 59.806 13.112 43.52 40.398 82.63 76.832 110.124 37.71 28.456 82.668 43.498 130.012 43.498 56.208 0 108.994-17.322 148.63-48.776 43.444-34.474 67.37-82.496 67.37-135.224 0-82.76-63.846-122.872-110.462-152.158-39.112-24.57-57.538-38.114-57.538-56.092v-32c0-26.51-21.49-48-48-48z" />
<glyph unicode="&#xed55;" glyph-name="question6" d="M512 64c-35.346 0-64 28.652-64 63.998v65.758c0 90.218 71.964 158.51 141.56 224.552 56.26 53.392 114.44 108.602 114.44 157.692 0 95.568-69.262 192-224 192-114.376 0-210.086-85.564-222.63-199.032-3.882-35.132-35.494-60.47-70.644-56.58-35.132 3.884-60.464 35.512-56.58 70.644 9.462 85.606 50.042 164.628 114.266 222.508 64.724 58.334 148.392 90.46 235.588 90.46 94.376 0 181.382-29.656 244.996-83.504 69.002-58.412 107.004-142.4 107.004-236.496 0-104.084-81.992-181.892-154.334-250.54-47.654-45.222-101.668-96.48-101.668-131.704l0.002-65.754c0-35.348-28.652-64.002-64-64.002zM576-64c0-35.346-28.654-64-64-64s-64 28.654-64 64c0 35.346 28.654 64 64 64s64-28.654 64-64z" />
<glyph unicode="&#xed5a;" glyph-name="plus3" d="M960 448h-384v384h-128v-384h-384v-128h384v-384h128v384h384z" />
<glyph unicode="&#xed5b;" glyph-name="minus3" d="M64 448h896v-128h-896v128z" />
<glyph unicode="&#xed5c;" glyph-name="plus-circle" d="M512 896c-282.77 0-512-229.23-512-512s229.23-512 512-512 512 229.23 512 512-229.23 512-512 512zM512 0c-212.078 0-384 171.922-384 384s171.922 384 384 384c212.078 0 384-171.922 384-384s-171.922-384-384-384zM768 320h-192v-192h-128v192h-192v128h192v192h128v-192h192z" />
<glyph unicode="&#xed5d;" glyph-name="minus-circle" d="M512 896c-282.77 0-512-229.23-512-512s229.23-512 512-512 512 229.23 512 512-229.23 512-512 512zM512 0c-212.078 0-384 171.922-384 384s171.922 384 384 384c212.078 0 384-171.922 384-384s-171.922-384-384-384zM256 448h512v-128h-512z" />
<glyph unicode="&#xed60;" glyph-name="info" d="M448 592c0 26.4 21.6 48 48 48h32c26.4 0 48-21.6 48-48v-32c0-26.4-21.6-48-48-48h-32c-26.4 0-48 21.6-48 48v32zM640 128h-256v64h64v192h-64v64h192v-256h64zM512 896c-282.77 0-512-229.23-512-512s229.23-512 512-512 512 229.23 512 512-229.23 512-512 512zM512-32c-229.75 0-416 186.25-416 416s186.25 416 416 416 416-186.25 416-416-186.25-416-416-416z" />
<glyph unicode="&#xed62;" glyph-name="cancel-circle" d="M512 896c-282.77 0-512-229.23-512-512s229.23-512 512-512 512 229.23 512 512-229.23 512-512 512zM512-32c-229.75 0-416 186.25-416 416s186.25 416 416 416 416-186.25 416-416-186.25-416-416-416zM672 640l-160-160-160 160-96-96 160-160-160-160 96-96 160 160 160-160 96 96-160 160 160 160z" />
<glyph unicode="&#xed6a;" glyph-name="cross2" d="M893.254 674.746l-90.508 90.508-290.746-290.744-290.746 290.744-90.508-90.506 290.746-290.748-290.746-290.746 90.508-90.508 290.746 290.746 290.746-290.746 90.508 90.51-290.744 290.744z" />
<glyph unicode="&#xed6e;" glyph-name="checkmark3" d="M896 736l-544-544-224 224-96-96 320-320 640 640z" />
<glyph unicode="&#xed73;" glyph-name="enter" d="M448 64l288 288-288 288v-192h-448v-192h448v-192zM960-128h-704v128h640v704h-640v128h704c35.346 0 64-28.654 64-64v-832c0-35.346-28.654-64-64-64z" />
<glyph unicode="&#xed74;" glyph-name="exit" d="M704 64l288 288-288 288v-192h-448v-192h448v-192zM64 832h704v-128h-640v-704h640v-128h-704c-35.346 0-64 28.654-64 64v832c0 35.346 28.654 64 64 64z" />
<glyph unicode="&#xed7b;" glyph-name="play3" d="M512 896c-282.77 0-512-229.23-512-512s229.23-512 512-512 512 229.23 512 512-229.23 512-512 512zM512-32c-229.75 0-416 186.25-416 416s186.25 416 416 416 416-186.25 416-416-186.25-416-416-416zM384 608l384-224-384-224z" />
<glyph unicode="&#xed8d;" glyph-name="volume-medium" d="M719.53 64.47c-12.286 0-24.566 4.686-33.942 14.056-18.744 18.744-18.744 49.136 0 67.882 131.006 131.006 131.006 344.17 0 475.176-18.744 18.746-18.744 49.138 0 67.882 18.744 18.742 49.138 18.744 67.882 0 81.594-81.59 126.53-190.074 126.53-305.466 0-115.39-44.936-223.876-126.53-305.47-9.372-9.374-21.656-14.060-33.94-14.060v0zM549.020 154.98c-12.286 0-24.566 4.686-33.942 14.058-18.746 18.746-18.746 49.134 0 67.88 81.1 81.1 81.1 213.058 0 294.156-18.746 18.746-18.746 49.138 0 67.882s49.136 18.744 67.882 0c118.53-118.53 118.53-311.392 0-429.922-9.372-9.368-21.656-14.054-33.94-14.054zM416.006-64c-8.328 0-16.512 3.25-22.634 9.374l-246.626 246.626h-114.746c-17.672 0-32 14.326-32 32v320c0 17.672 14.328 32 32 32h114.746l246.626 246.628c9.154 9.154 22.916 11.89 34.874 6.936 11.958-4.952 19.754-16.622 19.754-29.564v-832c0-12.944-7.796-24.612-19.754-29.564-3.958-1.64-8.118-2.436-12.24-2.436z" />
<glyph unicode="&#xedac;" glyph-name="shuffle" d="M768 192h-101.49l-160 160 160 160h101.49v-160l224 224-224 224v-160h-128c-16.974 0-33.252-6.744-45.254-18.746l-178.746-178.744-178.746 178.746c-12 12-28.28 18.744-45.254 18.744h-192v-128h165.49l160-160-160-160h-165.49v-128h192c16.974 0 33.252 6.742 45.254 18.746l178.746 178.744 178.746-178.744c12.002-12.004 28.28-18.746 45.254-18.746h128v-160l224 224-224 224v-160z" />
<glyph unicode="&#xedb7;" glyph-name="arrow-up4" d="M0 224l64-64 448 448 448-448 64 64-511.998 512-512.002-512z" />
<glyph unicode="&#xedbb;" glyph-name="arrow-right4" d="M352 896l-64-64 448-448-448-448 64-64 512 511.998-512 512.002z" />
<glyph unicode="&#xedbf;" glyph-name="arrow-down4" d="M1024 544l-64 64-448-448-448 448-64-64 511.998-512 512.002 512z" />
<glyph unicode="&#xedc3;" glyph-name="arrow-left4" d="M672-128l64 64-448 448 448 448-64 64-512-511.998 512-512.002z" />
<glyph unicode="&#xedc4;" glyph-name="arrow-up5" d="M800 256l-288 288-288-288h576z" />
<glyph unicode="&#xedc5;" glyph-name="arrow-right5" d="M384 96l288 288-288 288v-576z" />
<glyph unicode="&#xedc6;" glyph-name="arrow-down5" d="M224 512l288-288 288 288h-576z" />
<glyph unicode="&#xedc7;" glyph-name="arrow-left5" d="M640 672l-288-288 288-288v576z" />
<glyph unicode="&#xedd9;" glyph-name="arrow-up8" d="M877.254 493.254l-320 320c-24.992 24.994-65.514 24.994-90.508 0l-320-320c-24.994-24.994-24.994-65.516 0-90.51 24.994-24.996 65.516-24.996 90.51 0l210.744 210.746v-613.49c0-35.346 28.654-64 64-64s64 28.654 64 64v613.49l210.746-210.746c12.496-12.496 28.876-18.744 45.254-18.744s32.758 6.248 45.254 18.746c24.994 24.994 24.994 65.514 0 90.508z" />
<glyph unicode="&#xeddd;" glyph-name="arrow-down8" d="M877.254 274.746l-320-320c-24.992-24.994-65.514-24.994-90.508 0l-320 320c-24.994 24.994-24.994 65.516 0 90.51 24.994 24.996 65.516 24.996 90.51 0l210.744-210.746v613.49c0 35.346 28.654 64 64 64s64-28.654 64-64v-613.49l210.746 210.746c12.496 12.496 28.876 18.744 45.254 18.744s32.758-6.248 45.254-18.746c24.994-24.994 24.994-65.514 0-90.508z" />
<glyph unicode="&#xede4;" glyph-name="circle-up2" d="M0 384c0-282.77 229.23-512 512-512s512 229.23 512 512-229.23 512-512 512-512-229.23-512-512zM928 384c0-229.75-186.25-416-416-416s-416 186.25-416 416 186.25 416 416 416 416-186.25 416-416zM706.744 226.744l90.512 90.512-285.256 285.254-285.254-285.256 90.508-90.508 194.746 194.744z" />
<glyph unicode="&#xede5;" glyph-name="circle-right2" d="M512 896c-282.77 0-512-229.23-512-512s229.23-512 512-512 512 229.23 512 512-229.23 512-512 512zM512-32c-229.75 0-416 186.25-416 416s186.25 416 416 416 416-186.25 416-416-186.25-416-416-416zM354.744 189.256l90.512-90.512 285.254 285.256-285.256 285.254-90.508-90.508 194.744-194.746z" />
<glyph unicode="&#xede6;" glyph-name="circle-down2" d="M1024 384c0 282.77-229.23 512-512 512s-512-229.23-512-512 229.23-512 512-512 512 229.23 512 512zM96 384c0 229.75 186.25 416 416 416s416-186.25 416-416-186.25-416-416-416-416 186.25-416 416zM317.256 541.256l-90.512-90.512 285.256-285.254 285.254 285.256-90.508 90.508-194.746-194.744z" />
<glyph unicode="&#xede7;" glyph-name="circle-left2" d="M512-128c282.77 0 512 229.23 512 512s-229.23 512-512 512-512-229.23-512-512 229.23-512 512-512zM512 800c229.75 0 416-186.25 416-416s-186.25-416-416-416-416 186.25-416 416 186.25 416 416 416zM669.256 578.744l-90.512 90.512-285.254-285.256 285.256-285.254 90.508 90.508-194.744 194.746z" />
<glyph unicode="&#xee2c;" glyph-name="circle-up6" d="M0 384c0-282.77 229.23-512 512-512s512 229.23 512 512-229.23 512-512 512-512-229.23-512-512zM896 384c0-212.078-171.922-384-384-384s-384 171.922-384 384c0 212.078 171.922 384 384 384s384-171.922 384-384zM736 448h-160v-320h-128v320h-160l224 224z" />
<glyph unicode="&#xee2e;" glyph-name="circle-down6" d="M0 384c0 282.77 229.23 512 512 512s512-229.23 512-512-229.23-512-512-512-512 229.23-512 512zM896 384c0 212.078-171.922 384-384 384s-384-171.922-384-384c0-212.078 171.922-384 384-384s384 171.922 384 384zM736 320h-160v320h-128v-320h-160l224-224z" />
<glyph unicode="&#xee63;" glyph-name="checkbox-checked" d="M0 896v-1024h1024v1024h-1024zM960-64h-896v896h896v-896zM160 384l96 96 160-160 352 352 96-96-448-448z" />
<glyph unicode="&#xee64;" glyph-name="checkbox-unchecked" d="M0 896v-1024h1024v1024h-1024zM960-64h-896v896h896v-896z" />
<glyph unicode="&#xee74;" glyph-name="circle" d="M512 896c-282.77 0-512-229.23-512-512s229.23-512 512-512 512 229.23 512 512-229.23 512-512 512zM512-64c-247.424 0-448 200.576-448 448s200.576 448 448 448 448-200.576 448-448-200.576-448-448-448z" />
<glyph unicode="&#xee80;" glyph-name="pencil-ruler" d="M249.562 881.846c-5.964 8.882-15.986 14.21-26.676 14.154-10.7-0.040-20.672-5.422-26.574-14.346l-127-192c-3.464-5.236-5.312-11.376-5.312-17.654v-736c0-35.29 28.708-64 64-64h192c35.29 0 64 28.71 64 64v736c0 6.356-1.894 12.57-5.44 17.846l-128.998 192zM197.868 768h51.082l71.050-105.752 0.022-662.248h-192.022v662.374l69.868 105.626zM224 64c17.672 0 32 14.326 32 32v512c0 17.672-14.328 32-32 32s-32-14.328-32-32v-512c0-17.674 14.328-32 32-32zM512 896v-1024h384v1024h-384zM832 768h-64v-64h64v-64h-128v-64h128v-64h-64v-64h64v-64h-128v-64h128v-64h-64v-64h64v-64h-128v-64h128v-128h-256v896h256v-64z" />
<glyph unicode="&#xee8e;" glyph-name="font-size" d="M128 896v-320l128 192h256v-832h-128v-64h384v64h-128v832h256l128-192v320zM256 320h128l64-96v160h-448v-160l64 96h128v-384h-64v-64h192v64h-64z" />
<glyph unicode="&#xeeac;" glyph-name="table2" d="M0 832v-896h1024v896h-1024zM384 256v192h256v-192h-256zM640 192v-192h-256v192h256zM640 704v-192h-256v192h256zM320 704v-192h-256v192h256zM64 448h256v-192h-256v192zM704 448h256v-192h-256v192zM704 512v192h256v-192h-256zM64 192h256v-192h-256v192zM704 0v192h256v-192h-256z" />
<glyph unicode="&#xeebe;" glyph-name="paragraph-left3" d="M0 832h1024v-128h-1024zM0 576h640v-128h-640zM0 64h640v-128h-640zM0 320h1024v-128h-1024z" />
<glyph unicode="&#xeebf;" glyph-name="paragraph-center3" d="M0 832h1024v-128h-1024zM192 576h640v-128h-640zM192 64h640v-128h-640zM0 320h1024v-128h-1024z" />
</font>
</defs>
</svg>
