<?xml version="1.0" standalone="no"?>
<!DOCTYPE svg PUBLIC "-//W3C//DTD SVG 1.1//EN" "http://www.w3.org/Graphics/SVG/1.1/DTD/svg11.dtd" >
<!--
2017-11-16: Created.
-->
<svg xmlns="http://www.w3.org/2000/svg">
<metadata>
Created by FontForge 20120731 at Thu Nov 16 14:21:59 2017
 By icons8

</metadata>
<defs>
<font id="Skelet" horiz-adv-x="512" >
  <font-face 
    font-family="Skelet"
    font-weight="500"
    font-stretch="normal"
    units-per-em="512"
    panose-1="2 0 6 3 0 0 0 0 0 0"
    ascent="448"
    descent="-64"
    bbox="-0.0600586 -64.0285 513.92 448.059"
    underline-thickness="25.6"
    underline-position="-51.2"
    unicode-range="U+0020-F115"
  />
    <missing-glyph />
    <glyph glyph-name="space" unicode=" " horiz-adv-x="200" 
 />
    <glyph glyph-name="windsock" unicode="&#xf114;" 
d="M30.7197 407.04c16.8398 0 30.7207 -13.8799 30.7207 -30.7197c0 -13.2402 -8.64062 -24.5205 -20.4805 -28.8008v-360.319h-20.4795v360.319c-11.8408 4.28027 -20.4805 15.5605 -20.4805 28.8008c0 16.8398 13.8799 30.7197 30.7197 30.7197zM98.8799 387.52
c84.8799 2.44043 126.96 -23.4795 169.92 -41.9199c45.8398 -19.6797 93.8398 -32.6797 209.601 -0.319336l9.59961 2.55957l2.87988 -9.28027l23.04 -69.1191l-6.71973 -4.16016c-100.8 -63.96 -179 -63.7998 -244.8 -55.3604
c-65.8008 8.44043 -117.641 23.7998 -175.681 -6.40039l-15.04 -8v190.4l9.60059 0.639648c6.04004 0.44043 11.96 0.800781 17.5996 0.959961zM30.7197 386.56c-5.75977 0 -10.2393 -4.47949 -10.2393 -10.2393c0 -5.76074 4.47949 -10.2402 10.2393 -10.2402
c5.76074 0 10.2402 4.47949 10.2402 10.2402c0 5.75977 -4.47949 10.2393 -10.2402 10.2393zM112.64 366.4v-0.320312c0 -5.63965 -4.59961 -10.2402 -10.2393 -10.2402c-5.64062 0 -10.2402 4.60059 -10.2402 10.2402v-139.2
c21.0801 8.63965 41.6797 12.6797 62.0801 13.7598c-0.240234 0.879883 -0.640625 1.60059 -0.640625 2.56055c0 3.31934 1.68066 6.12012 4.16016 8l4.7998 43.5195c-5 0.680664 -8.95996 4.7207 -8.95996 9.91992c0 5.64062 4.60059 10.2402 10.2402 10.2402
c0.360352 0 0.600586 -0.280273 0.959961 -0.320312l4.7998 43.2002c-1.63965 -1.16016 -3.59961 -1.91992 -5.75977 -1.91992c-4.59961 0 -8.32031 3.2002 -9.59961 7.36035c-12.4404 1.7998 -26.2402 3.08008 -41.6006 3.2002zM92.1602 304.64
c0 5.64062 4.59961 10.2402 10.2402 10.2402c5.63965 0 10.2393 -4.59961 10.2393 -10.2402c0 -5.63965 -4.59961 -10.2393 -10.2393 -10.2393c-5.64062 0 -10.2402 4.59961 -10.2402 10.2393zM92.1602 243.2c0 5.63965 4.59961 10.2402 10.2402 10.2402
c5.63965 0 10.2393 -4.60059 10.2393 -10.2402c0 -5.64062 -4.59961 -10.2402 -10.2393 -10.2402c-5.64062 0 -10.2402 4.59961 -10.2402 10.2402zM190.08 355.2l-12.7998 -114.561c22.04 -0.799805 44.1201 -4.15918 66.5596 -7.35938l18.2402 92.7998
c-0.44043 0.200195 -0.839844 0.439453 -1.28027 0.639648c-23.2002 9.95996 -44.5596 20.6406 -70.7197 28.4805zM133.12 345.6c5.63965 0 10.2402 -4.59961 10.2402 -10.2393c0 -5.64062 -4.60059 -10.2402 -10.2402 -10.2402s-10.2402 4.59961 -10.2402 10.2402
c0 5.63965 4.60059 10.2393 10.2402 10.2393zM474.56 323.52c-16.04 -4.23926 -30.9199 -7.63965 -44.7998 -10.2393l10.2402 -29.1201h0.320312c5.63965 0 10.2393 -4.60059 10.2393 -10.2402c0 -3.24023 -1.51953 -6.12012 -3.83984 -8l2.87988 -8.32031
c12.7207 6.04004 25.96 13.0801 39.6807 21.4404l-8.32031 24.6396c-0.519531 -5.16016 -4.63965 -9.2793 -9.91992 -9.2793c-5.63965 0 -10.2402 4.59961 -10.2402 10.2393c0 5.64062 4.60059 10.2402 10.2402 10.2402c2.83984 0 5.51953 -1.04004 7.36035 -2.87988z
M281.28 318.72l-1.28027 -6.39941c1.7998 1.55957 4.16016 2.55957 6.71973 2.55957c5.64062 0 10.2402 -4.59961 10.2402 -10.2402c0 -5.63965 -4.59961 -10.2393 -10.2402 -10.2393c-4 0 -7.2793 2.43945 -8.95996 5.75977l-13.4395 -69.7598
c0.319336 -0.0400391 0.639648 0.0400391 0.959961 0c24.4795 -3.16016 49.9199 -5.12012 77.4395 -2.88086l-0.319336 7.36035c-2.64062 1.83984 -4.48047 4.83984 -4.48047 8.32031c0 3.08008 1.36035 5.7998 3.52051 7.67969l-3.2002 53.1201
c0 0.240234 -0.320312 0.400391 -0.320312 0.639648v0.320312v1.91992c-21.7598 1.75977 -40.0801 6.16016 -56.6396 11.8398zM408.96 310.08c-18.6797 -2.63965 -35.4404 -3.87988 -50.5596 -3.83984l4.7998 -76.1602c21.1201 3.28027 43.4395 9.36035 67.5195 19.2002z
M133.12 284.16c5.63965 0 10.2402 -4.60059 10.2402 -10.2402s-4.60059 -10.2402 -10.2402 -10.2402s-10.2402 4.60059 -10.2402 10.2402s4.60059 10.2402 10.2402 10.2402zM317.44 284.16c5.63965 0 10.2393 -4.60059 10.2393 -10.2402
s-4.59961 -10.2402 -10.2393 -10.2402c-5.64062 0 -10.2402 4.60059 -10.2402 10.2402s4.59961 10.2402 10.2402 10.2402zM286.72 253.44c5.64062 0 10.2402 -4.60059 10.2402 -10.2402c0 -5.64062 -4.59961 -10.2402 -10.2402 -10.2402
c-5.63965 0 -10.2393 4.59961 -10.2393 10.2402c0 5.63965 4.59961 10.2402 10.2393 10.2402z" />
    <glyph glyph-name="document" unicode="&#xf101;" 
d="M71.6797 427.52h239.681l3.19922 -2.87988l122.881 -122.88l2.87988 -3.2002v-342.079h-368.641v471.039zM92.1602 407.04v-430.08h327.68v307.2h-122.88v122.88h-204.8zM317.44 392.32v-87.6807h87.6797zM153.6 222.72h204.801v-20.4795h-204.801v20.4795zM153.6 161.28
h163.841v-20.4805h-163.841v20.4805zM153.6 99.8398h204.801v-20.4795h-204.801v20.4795z" />
    <glyph glyph-name="show-location" unicode="&#xf10c;" 
d="M8.95996 427.52c1.95996 0.240234 3.95996 -0.0791016 5.75977 -0.959961l118.4 -59.1992l118.399 59.1992c2.7207 1.28027 5.9209 1.28027 8.64062 0l128.64 -59.1992l108.16 58.8799c3.16016 1.67969 6.95996 1.59961 10.04 -0.240234s4.95996 -5.16016 5 -8.71973
v-389.12c-0.0400391 -3.75977 -2.12012 -7.2002 -5.44043 -8.95996l-112.64 -61.4404c-2.75977 -1.47949 -6.08008 -1.59961 -8.95996 -0.319336l-128.64 59.5195l-118.721 -59.5195c-2.83984 -1.36035 -6.11914 -1.36035 -8.95996 0l-122.88 61.4395
c-3.55957 1.71973 -5.7998 5.32031 -5.75977 9.28027v389.12c-0.0400391 5.2002 3.7998 9.59961 8.95996 10.2393zM266.24 401.6v-367.04l112.64 -51.8398v366.721zM20.4805 400.64v-366.08l102.399 -51.1992v366.08zM245.76 400.64l-102.399 -51.1992v-366.08
l102.399 51.1992v366.08zM491.52 400l-92.1592 -50.2402v-365.76l92.1592 50.2402v365.76z" />
    <glyph glyph-name="profile-avatar" unicode="&#xf111;" 
d="M264.96 413.12h0.320312c22.3594 0 41.7197 -5.24023 52.4795 -19.2002c16.5605 -3.36035 29.6807 -11.5195 37.7598 -22.7197c8.84082 -12.2002 12.6006 -26.8799 13.7607 -41.6006c2.12012 -26.96 -4.28027 -53.1992 -9.28027 -69.4395
c4.63965 -5.71973 8.40039 -13.1201 7.04004 -24.3203c-1.52051 -12.5996 -5 -21.5596 -9.91992 -27.8398c-2.63965 -3.36035 -6.08008 -3.75977 -9.28027 -5.44043c-1.75977 -10.6797 -4.91992 -21.4395 -9.28027 -30.3994
c-2.51953 -5.12012 -5.19922 -9.87988 -8 -13.7598c-1.2793 -1.7207 -3.11914 -2.68066 -4.47949 -4.16016c-0.0800781 -12.7598 -0.160156 -23.3203 0.959961 -36.7998c3.40039 -7.9209 11.2402 -14.2402 23.6797 -20.4805
c12.96 -6.47949 29.6807 -12.4795 46.7207 -19.8398s34.4395 -16.3203 48.3193 -30.4004s23.7598 -33.3994 25.2803 -58.8799l0.639648 -10.8799h-410.88l0.640625 10.8799c1.51953 25.4805 11.3594 44.7998 25.2793 58.8799s31.5205 23.04 48.6406 30.4004
s34.04 13.3604 47.04 19.8398c12.5996 6.28027 20.3594 12.7598 23.6797 20.7998c1.08008 13.3203 1.04004 23.8398 0.959961 36.4805c-1.36035 1.43945 -3.2002 2.43945 -4.48047 4.16016c-2.83984 3.83984 -5.75977 8.59961 -8.31934 13.7598
c-4.48047 8.95996 -7.48047 19.6797 -9.28027 30.3994c-3.32031 1.68066 -6.87988 2 -9.59961 5.44043c-4.91992 6.28027 -8.40039 15.2402 -9.91992 27.8398c-1.40039 11.5605 2.47949 19.2402 7.35938 24.96c-9.08008 37.3604 -11.8799 73.4805 0.640625 102.08
c13.1191 30.04 43.6797 49.3604 91.5195 50.2402zM265.28 392.64c-42.5605 -0.879883 -62.96 -15.2393 -72.96 -38.0801c-10.04 -22.9199 -8.36035 -56.6396 1.2793 -93.7598l1.91992 -7.35938l-6.71973 -4.16016c0.44043 0.279297 -3.87988 -2.68066 -2.87988 -11.2002
c1.2002 -10.04 3.59961 -15.2402 5.44043 -17.5996c1.83984 -2.36035 2.7998 -2.24023 2.87988 -2.24023l8.63965 -0.640625l0.959961 -8.31934c0.919922 -8.76074 4.40039 -19.6807 8.64062 -28.1602c2.11914 -4.24023 4.47949 -7.95996 6.39941 -10.5605
c1.91992 -2.59961 4.12012 -4 3.2002 -3.51953l5.43945 -2.87988v-6.08008c0 -14.8398 0.600586 -27 -0.959961 -44.1602l-0.639648 -2.55957c-5.83984 -15.7207 -19.6396 -25.5205 -34.5596 -32.96c-14.9199 -7.44043 -31.8799 -12.9199 -48 -19.8408
c-16.1201 -6.91992 -31 -15.1992 -41.9199 -26.2393c-8.68066 -8.76074 -14.0801 -20.4004 -16.96 -34.8799h363.52c-2.87988 14.5195 -8.32031 26.1191 -16.96 34.8799c-10.8799 11.04 -25.5596 19.3193 -41.5996 26.2393c-16.04 6.9209 -33.1201 12.4004 -48 19.8408
c-14.8809 7.43945 -28.4004 17.2393 -34.2402 32.96l-0.640625 1.2793v1.28027c-1.55957 17.1602 -0.959961 29.3203 -0.959961 44.1602v6.08008l5.44043 2.87988c-0.959961 -0.520508 1 0.919922 2.87988 3.51953c1.87988 2.60059 4 6.32031 6.08008 10.5605
c4.12012 8.47949 7.67969 19.3203 8.63965 28.1602l0.959961 8.31934l8.64062 0.640625c0.0800781 0 1.04004 -0.120117 2.87988 2.24023c1.83984 2.35938 4.24023 7.55957 5.43945 17.5996c1.04004 8.51953 -3.31934 11.4795 -2.87988 11.2002l-7.04004 4.16016l2.56055 8
c4.43945 13.3994 11.5195 42 9.59961 66.5596c-0.959961 12.2803 -4.16016 23.4004 -9.91992 31.3604s-13.9199 13.7197 -28.1602 15.6797l-4.7998 0.639648l-2.55957 4.16016c-3.80078 6.67969 -17.1602 12.7197 -37.7607 12.7998h-0.319336z" />
    <glyph glyph-name="airplane-take-off" unicode="&#xf113;" 
d="M440.64 335.36c9.52051 0.15918 18.1602 -0.919922 26.2402 -2.87988c21.5605 -5.28027 37.4805 -15.8408 43.8398 -30.0801c2.7998 -6.28027 0 -12.1201 -2.55957 -15.6807c-2.56055 -3.55957 -5.60059 -6.43945 -9.60059 -9.59961
c-8 -6.32031 -19.2393 -13.3604 -32.96 -21.1201c-26.6396 -15.04 -63.1191 -32.7598 -101.119 -50.5596l-76.1602 -164.801h0.319336c-3.35938 -7.31934 -8.23926 -14.4795 -13.4395 -20.4795s-10.6406 -11.1201 -17.2803 -14.0801l-16 -7.04004
c-2.67969 -1.16016 -6.16016 -1.95996 -10.2402 -0.639648c-4.08008 1.31934 -7.31934 4.75977 -8.63965 8c-2.52051 6.31934 -1.55957 12.1992 0.320312 19.8398v0.639648l23.6797 125.12c-4.55957 -2.04004 -9.48047 -4.16016 -13.7598 -6.08008
c-54.3604 -24.2402 -97.5205 -38.1201 -129.601 -42.5596c-16.04 -2.2002 -29.4795 -2.32031 -40.6396 0.639648s-20.2803 9.71973 -24.6396 19.5195c-8.04004 18.0801 -29.6406 65.6006 -36.4805 80.9609c-2.75977 6.15918 -2.32031 13.8799 0.959961 19.1992
c3.28027 5.32031 8.24023 8 13.1201 9.60059c9.7998 3.2002 20.6396 3.12012 29.7598 -3.83984c5.91992 -4.60059 26.4404 -19.5205 40.3203 -29.7607c3.91992 -2.91992 6.95996 -4.83984 8.63965 -5.43945c1.68066 -0.600586 1.68066 -0.959961 3.83984 0
c2.48047 1.12012 48.7207 21.8398 82.8809 37.1201l-67.8408 41.2793l-0.319336 0.320312c-7.04004 3.75977 -12 6.95996 -15.04 13.1201c-1.56055 3.16016 -2.08008 7.91992 -0.320312 11.8398s5 5.83984 7.67969 7.04004l16 7.04004
c6.68066 2.95996 13.8408 3.63965 21.7607 3.51953c7.91992 -0.119141 16.2793 -1.15918 24 -3.51953l115.52 -35.5195c47.5205 21.2393 104.96 47.0391 104.96 47.0391c14.9199 6.64062 29.5205 9.96094 42.8799 11.2002
c3.32031 0.320312 6.76074 0.600586 9.91992 0.640625zM440.64 314.88c-2.59961 0 -5.23926 -0.0800781 -8 -0.320312c-11.0801 -1.04004 -23.5195 -4.15918 -36.4795 -9.91992c0 0 -57.2402 -25.4395 -104.32 -46.3994l-0.320312 -0.320312
c-1.59961 -1.43945 -3.59961 -2.32031 -5.75977 -2.55957c-0.120117 -0.0400391 -0.200195 0.0400391 -0.319336 0c-0.320312 -0.120117 -0.640625 -0.240234 -0.959961 -0.320312c-34.6406 -15.4404 -40.4404 -18.0801 -74.5605 -33.2803
c-0.120117 -0.120117 -0.200195 -0.200195 -0.320312 -0.319336c-0.15918 -0.0800781 -0.15918 -0.240234 -0.319336 -0.320312c-0.879883 -0.560547 -1.87988 -1 -2.87988 -1.28027c-0.360352 -0.160156 -0.600586 0.160156 -0.959961 0
c-44.2803 -19.7598 -95.6406 -42.8799 -98.5605 -44.1602c-6.39941 -2.87988 -13.6396 -3 -19.2002 -0.959961c-5.55957 2.04004 -9.67969 5.32031 -13.7598 8.32031c-13.9199 10.2402 -33.96 25.2402 -40.6396 30.4004v-0.320312
c-0.879883 0.679688 -7.36035 2.12012 -10.8799 0.959961c-0.880859 -0.280273 -1.56055 -0.679688 -1.91992 -0.959961c0.0791016 -0.0800781 0.15918 0.0800781 0.319336 -0.320312c6.7998 -15.3193 28.0801 -62.8799 36.1602 -80.96
c1.55957 -3.47949 4.40039 -6.12012 11.5205 -8c7.11914 -1.87988 18.2793 -2.32031 32.6396 -0.320312c28.7598 3.96094 70.5195 17.2002 123.84 40.9609c9.7998 4.35938 20.2803 9.11914 31.3604 14.0791l17.9199 8l-3.83984 -19.1992l-27.2002 -144.96v-0.320312
l6.39941 2.87988c1.60059 0.719727 6.24023 4.04004 10.2402 8.63965c4 4.60059 7.56055 10.2002 9.91992 15.3604l77.7598 168.32l1.60059 3.51953l3.51953 1.60059c39.1201 18.2793 76.5205 36.5596 103.04 51.5195c13.2803 7.48047 23.7207 14.1602 30.0801 19.2002
c2.04004 1.59961 2.7998 2.43945 3.83984 3.51953c-3.75977 4.87988 -12.7598 12.0801 -27.5195 15.6807c-6.40039 1.55957 -13.5996 2.55957 -21.4404 2.55957zM143.04 295.04c-6.08008 0.120117 -11.5205 -0.879883 -13.1201 -1.59961l-6.08008 -2.88086l80.6406 -48.96
c23.1992 10.3604 25.7197 11.4404 50.2393 22.4004l-93.4395 28.4805c-5.44043 1.67969 -12.1602 2.43945 -18.2402 2.55957z" />
    <glyph glyph-name="admin" unicode="&#xf110;" 
d="M256 427.44c129.953 0 235.52 -105.567 235.52 -235.521s-105.566 -235.52 -235.52 -235.52s-235.52 105.566 -235.52 235.52s105.566 235.521 235.52 235.521zM256 406.96c-118.885 0 -215.04 -96.1553 -215.04 -215.04c0 -58.7227 23.5273 -111.837 61.5996 -150.62
c18.791 13.6436 41.6172 20.5947 60.9404 27.5205c10.877 3.89844 20.6602 7.76074 27.7998 12.0596c6.83789 4.11719 10.6357 8.33398 12.6406 13.1602c0.935547 11.7529 0.746094 21.2041 0.679688 32.3604c-1.24219 1.23633 -2.83203 2.12305 -4.10059 3.61914
c-2.99219 3.53223 -6.03418 7.81641 -8.93945 12.6406c-4.98242 8.27148 -8.6084 18.373 -10.6396 28.6201c-3.10449 1.58203 -6.41895 1.92285 -8.94043 5.13965c-4.65527 5.93848 -7.79883 14.2988 -9.2002 25.9404c-1.2627 10.5654 2.23535 17.7725 6.7002 23.1992
c-8.30566 34.2832 -10.7939 67.2109 0.780273 93.6602c12.1719 27.8154 40.5996 46.0518 84.6602 46.8604h0.0791016h0.100586c19.667 0 36.1211 -5.54004 46.4795 -17.2998c16.3096 -2.8252 29.0518 -10.627 36.9004 -21.4805
c8.2207 -11.3682 11.6387 -25.0381 12.7002 -38.6201c1.92969 -24.6855 -3.75195 -48.54 -8.33984 -63.54c4.26465 -5.42676 7.57715 -12.498 6.33984 -22.7793c-1.39648 -11.6455 -4.54102 -20.002 -9.2002 -25.9404
c-2.52344 -3.21582 -5.83789 -3.55859 -8.94043 -5.13965c-2.03125 -10.2549 -5.65723 -20.3701 -10.6396 -28.6406c-2.90527 -4.82227 -5.9502 -9.11035 -8.93945 -12.6396c-1.26855 -1.49609 -2.86035 -2.36426 -4.10059 -3.59961
c-0.0703125 -11.1621 -0.260742 -20.6162 0.679688 -32.3604c2.00879 -4.84375 5.81152 -9.05859 12.6602 -13.1602c7.15137 -4.28223 16.9463 -8.12402 27.8398 -12c19.3438 -6.88281 42.1836 -13.7842 60.9209 -27.54c38.0488 38.7793 61.5596 91.877 61.5596 150.58
c0 118.885 -96.1553 215.04 -215.04 215.04zM255.2 345.58c-38.9678 -0.741211 -57.1055 -13.8682 -66.1602 -34.5605c-9.06348 -20.7119 -7.73145 -51.5674 1.08008 -85.4795l1.89941 -7.37988l-6.5 -3.94043c0.761719 0.462891 -3.27441 -1.92871 -2.37988 -9.41992
c1.09766 -9.11523 3.42285 -13.7529 4.98047 -15.7402c1.55762 -1.98633 2.21777 -1.73242 2.05957 -1.71973l8.44043 -0.700195l0.899414 -8.41992c0.772461 -7.22363 4.8418 -17.0996 9.60059 -25c2.37891 -3.9502 4.91016 -7.44629 7.04004 -9.95996
c2.12988 -2.5127 4.39746 -4.06836 3.54004 -3.62012l5.47949 -2.87988v-6.2002c0 -13.5703 0.541016 -24.6621 -0.879883 -40.4395l-0.120117 -1.36035l-0.479492 -1.2793c-4.02441 -10.8105 -12.4062 -18.46 -21.8398 -24.1406
c-9.43457 -5.68066 -20.2578 -9.79199 -31.4404 -13.7998c-18.4102 -6.59863 -37.6631 -13.0742 -52.4004 -22.5596c37.332 -31.2529 85.4131 -50.1006 137.98 -50.1006c52.5879 0 100.682 18.8662 138.02 50.1396c-14.6533 9.54102 -33.8779 15.998 -52.3193 22.5605
c-11.1904 3.98145 -22.042 8.07617 -31.5 13.7402c-9.45898 5.66406 -17.8701 13.3154 -21.9004 24.1602l-0.479492 1.2793l-0.120117 1.36035c-1.43262 15.7891 -0.879883 26.8789 -0.879883 40.4395v6.2002l5.47949 2.86035
c-0.856445 -0.449219 1.41113 1.10742 3.54004 3.62012s4.66113 6.03027 7.04004 9.97949c4.75879 7.89844 8.82812 17.7656 9.60059 25l0.899414 8.41992l8.44043 0.700195c-0.166992 -0.0136719 0.5 -0.267578 2.05957 1.71973
c1.55957 1.98828 3.8877 6.62891 4.98047 15.7402c0.901367 7.48926 -3.09082 9.85254 -2.37988 9.41992l-6.98047 4.24023l2.58008 7.74023c4.05469 12.1982 10.4443 38.5576 8.7002 60.8799c-0.873047 11.1611 -3.73047 21.0986 -8.87988 28.2197
c-5.15039 7.12109 -12.3369 12.1133 -25.2002 13.9004l-4.98047 0.679688l-2.5 4.37988c-3.25488 5.70996 -15.1357 11.3008 -34.0195 11.3203z" />
    <glyph glyph-name="signpost" unicode="&#xf10e;" 
d="M250.88 437.76c14 0 25.6006 -11.5996 25.6006 -25.5996v-25.6006h174.079c3.12012 0 6.04004 -1.39941 8 -3.83984l51.2002 -61.4395c3 -3.76074 3 -9.04004 0 -12.7998l-51.2002 -61.4404c-1.95996 -2.44043 -4.87988 -3.83984 -8 -3.83984h-174.079v-30.7197h133.119
c5.64062 0 10.2402 -4.60059 10.2402 -10.2402v-122.88c0 -5.64062 -4.59961 -10.2402 -10.2402 -10.2402h-133.119v-133.12h-20.4805v133.12h-10.2402v-133.12h-20.4795v133.12h-163.84c-3.12012 0 -6.04004 1.39941 -8 3.83984l-51.2002 61.4404
c-3 3.75977 -3 9.04004 0 12.7998l51.2002 61.4395c1.71973 2.2002 4.2793 3.56055 7.04004 3.84082h0.959961h163.84v30.7197h-122.88c-5.64062 0 -10.2402 4.59961 -10.2402 10.2402v122.88c-0.0400391 5.31934 4 9.75977 9.28027 10.2393h0.959961h122.88v25.6006
c0 14 11.5996 25.5996 25.5996 25.5996zM250.88 417.28c-2.91992 0 -5.12012 -2.2002 -5.12012 -5.12012v-25.6006h10.2402v25.6006c0 2.91992 -2.2002 5.12012 -5.12012 5.12012zM112.64 366.08v-102.4h333.12l42.5605 51.2002l-42.5605 51.2002h-333.12zM245.76 243.2
v-30.7197h10.2402v30.7197h-10.2402zM66.2402 192l-42.5605 -51.2002l42.5605 -51.2002h333.12v102.4h-333.12z" />
    <glyph glyph-name="google-sites" unicode="&#xf10d;" 
d="M51.04 396.8h409.92c16.7598 0 30.5596 -13.7998 30.5596 -30.5596v-348.48c0 -16.7598 -13.7998 -30.5596 -30.5596 -30.5596h-409.92c-16.7598 0 -30.5596 13.7998 -30.5596 30.5596v348.48c0 16.7598 13.7998 30.5596 30.5596 30.5596zM51.04 376.32
c-5.67969 0 -10.0801 -4.40039 -10.0801 -10.0801v-30.8799h430.08v30.8799c0 5.67969 -4.40039 10.0801 -10.0801 10.0801h-409.92zM71.6797 366.08c5.64062 0 10.2402 -4.59961 10.2402 -10.2402c0 -5.63965 -4.59961 -10.2402 -10.2402 -10.2402
c-5.63965 0 -10.2393 4.60059 -10.2393 10.2402c0 5.64062 4.59961 10.2402 10.2393 10.2402zM102.4 366.08c5.63965 0 10.2393 -4.59961 10.2393 -10.2402c0 -5.63965 -4.59961 -10.2402 -10.2393 -10.2402c-5.64062 0 -10.2402 4.60059 -10.2402 10.2402
c0 5.64062 4.59961 10.2402 10.2402 10.2402zM40.96 314.88v-143.36h430.08v143.36h-430.08zM40.96 151.04v-133.28c0 -5.67969 4.40039 -10.0801 10.0801 -10.0801h194.72v143.36h-204.8zM266.24 151.04v-143.36h194.72c5.67969 0 10.0801 4.40039 10.0801 10.0801v133.28
h-204.8zM61.4404 130.56h163.84v-20.4795h-163.84v20.4795zM61.4404 89.5996h163.84v-20.4795h-163.84v20.4795zM61.4404 48.6396h92.1592v-20.4795h-92.1592v20.4795z" />
    <glyph glyph-name="biometric-passport" unicode="&#xf115;" 
d="M18.5596 366.08h0.959961h0.960938h471.039c5.64062 0 10.2402 -4.59961 10.2402 -10.2402v-161.6c0.280273 -1.36035 0.280273 -2.7998 0 -4.16016v-161.92c0 -5.64062 -4.59961 -10.2402 -10.2402 -10.2402h-471.039c-5.64062 0 -10.2402 4.59961 -10.2402 10.2402
v160.96c-0.600586 2 -0.600586 4.08008 0 6.08008v160.64c-0.0800781 5 3.43945 9.32031 8.31934 10.2402zM30.7197 345.6v-143.359h133.761c5.19922 45.9199 44.2393 81.9199 91.5195 81.9199s86.3203 -36 91.5195 -81.9199h133.761v143.359h-450.561zM256 263.68
c-38.96 0 -70.4805 -30.7998 -71.6797 -69.4395c0.279297 -1.36035 0.279297 -2.7998 0 -4.16016c1 -38.7998 32.5996 -69.7598 71.6797 -69.7598c38.7197 0 70.1602 30.4395 71.6797 68.7998c-0.55957 1.87988 -0.55957 3.87988 0 5.75977
c-1.51953 38.3604 -32.96 68.7998 -71.6797 68.7998zM30.7197 181.76v-143.359h450.561v143.359h-133.761c-5.19922 -45.9199 -44.2393 -81.9199 -91.5195 -81.9199s-86.3203 36 -91.5195 81.9199h-133.761z" />
    <glyph glyph-name="add-2" unicode="&#xf105;" 
d="M245.76 355.84h20.4805v-153.6h153.6v-20.4805h-153.6v-153.6h-20.4805v153.6h-153.6v20.4805h153.6v153.6z" />
    <glyph glyph-name="forward-arrow" unicode="&#xf10b;" 
d="M295.68 335.36c2.76074 0.319336 5.52051 -0.480469 7.68066 -2.24023l163.84 -133.12c2.43945 -1.95996 3.83984 -4.87988 3.83984 -8s-1.40039 -6.04004 -3.83984 -8l-163.84 -133.12c-3.08008 -2.47949 -7.28027 -2.95996 -10.8408 -1.24023
c-3.55957 1.7207 -5.7998 5.32031 -5.7998 9.24023v70.7197c-108.6 -2.19922 -164.8 -34.8398 -193.6 -67.1992c-29.3203 -33 -31.6006 -64 -31.6797 -64.96v-0.640625c-0.160156 -5.63965 -4.9209 -10.0801 -10.5605 -9.91992s-10.0801 4.91992 -9.91992 10.5605v0.639648
v0.639648c0.0400391 1.95996 1.16016 63.2402 32.96 126.08c31.3604 62 94.9199 124.4 212.8 128v72.3203c-0.0400391 5.2002 3.7998 9.59961 8.95996 10.2402zM307.2 303.68v-60.4795c0 -5.64062 -4.60059 -10.2402 -10.2402 -10.2402
c-117.88 0 -174.92 -58.0801 -204.8 -117.12c-7.60059 -15.04 -13.2803 -30.0801 -17.6006 -44.1602c1.2002 1.44043 1.9209 2.7207 3.2002 4.16016c33.96 38.2002 98.8398 75.2002 219.2 75.2002c5.63965 0 10.2402 -4.59961 10.2402 -10.2402v-60.4795l137.28 111.68z" />
    <glyph glyph-name="home-address-2" unicode="&#xf10f;" 
d="M256 427.52c90.3604 0 163.84 -73.4795 163.84 -163.84c0 -65.2793 -39.5596 -140 -78.3994 -199.68c-38.8408 -59.6797 -77.7607 -104 -77.7607 -104c-1.95996 -2.2002 -4.75977 -3.48047 -7.67969 -3.48047s-5.71973 1.28027 -7.67969 3.48047
c0 0 -38.9199 44.2402 -77.7607 104c-38.8398 59.7598 -78.3994 134.72 -78.3994 199.68c0 90.3604 73.4795 163.84 163.84 163.84zM256 407.04c-79.2803 0 -143.36 -64.0801 -143.36 -143.36c0 -56.3193 37.2402 -130.08 75.2002 -188.479
c31.8799 -49.04 58.7598 -81.4004 68.1602 -92.4805c9.44043 11.0801 36.3203 43.2803 68.1602 92.1602c37.96 58.3203 75.2002 132.08 75.2002 188.8c0 79.2803 -64.0801 143.36 -143.36 143.36zM256 326.72l5.12012 -3.2002l76.7998 -46.0791l-10.2402 -17.2803v-78.4004
h-143.359v78.4004l-10.2402 17.2803l76.7998 46.0791zM256 303.04l-51.2002 -30.7197v-70.0801h30.7197v51.2002h40.9609v-51.2002h30.7197v70.0801z" />
    <glyph glyph-name="paper-airplane" unicode="&#xf112;" 
d="M500.8 448c3.36035 0.360352 6.64062 -0.959961 8.83984 -3.51953c2.16016 -2.56055 2.95996 -6.04004 2.04004 -9.28027l-122.88 -491.521c-0.879883 -3.55957 -3.55957 -6.31934 -7.08008 -7.31934c-3.51953 -1 -7.2793 -0.0400391 -9.87988 2.51953l-132.8 130.88
l-88 -99.5195c-2.83984 -3.52051 -7.67969 -4.7207 -11.8398 -2.91992c-4.16016 1.7998 -6.64062 6.12012 -6.08008 10.5996l13.4395 138.24l-139.52 45.7598c-3.83984 1.28027 -6.55957 4.71973 -6.91992 8.75977c-0.320312 4.04004 1.75977 7.87988 5.32031 9.80078
l491.52 266.239c1.2002 0.680664 2.48047 1.12012 3.83984 1.28027zM486.08 417.92l-450.24 -244.16l120 -39.04l257.601 208.641c3.87988 4.08008 10.3193 4.19922 14.3994 0.319336s4.2002 -10.3193 0.320312 -14.3994l-176.32 -243.521l121.28 -119.68zM366.4 279.04
l-199.04 -160.96l-10.8799 -110.72l73.2793 82.2393c0.200195 0.320312 0.400391 0.640625 0.640625 0.959961l0.639648 0.640625c0.280273 0.439453 0.599609 0.879883 0.959961 1.28027z" />
    <glyph glyph-name="add" unicode="&#xf104;" 
d="M256 427.52c129.953 0 235.52 -105.566 235.52 -235.52s-105.566 -235.52 -235.52 -235.52s-235.52 105.566 -235.52 235.52s105.566 235.52 235.52 235.52zM256 407.04c-118.885 0 -215.04 -96.1553 -215.04 -215.04s96.1553 -215.04 215.04 -215.04
s215.04 96.1553 215.04 215.04s-96.1553 215.04 -215.04 215.04zM245.76 314.88h20.4805v-112.64h112.64v-20.4805h-112.64v-112.64h-20.4805v112.64h-112.64v20.4805h112.64v112.64z" />
    <glyph glyph-name="document-clip" unicode="&#xf100;" 
d="M399.36 386.56c18.3193 0 36.96 -6.87988 50.8799 -20.7998c27.8398 -27.8398 27.8398 -73.5996 0 -101.439l-252.48 -252.16c-35.7998 -35.7998 -94.0801 -35.7998 -129.92 0s-35.7998 94.4395 0 130.24l201.601 201.6c2.47949 3.04004 6.43945 4.44043 10.2793 3.55957
c3.7998 -0.879883 6.7998 -3.87988 7.68066 -7.67969c0.879883 -3.83984 -0.520508 -7.7998 -3.56055 -10.2803l-201.6 -201.6c-28 -28 -28 -73.1201 0 -101.12s73.1201 -28 101.12 0l252.159 252.16c20 20 20 52 0 72c-20.0391 20.04 -52 20 -72 0l-203.84 -203.521
v-0.319336l-0.959961 -0.640625c-0.200195 -0.239258 -0.399414 -0.439453 -0.639648 -0.639648c-0.280273 -0.439453 -0.599609 -0.879883 -0.959961 -1.28027c-10.8799 -12.0801 -10.6797 -30.2793 0.959961 -41.9199c12.04 -12.04 31.4795 -12.04 43.5195 0
l154.561 154.561c1.83984 1.95996 4.35938 3.08008 7.04004 3.2002c4.2002 0.0791016 8.08008 -2.40039 9.67969 -6.28027c1.63965 -3.87988 0.719727 -8.40039 -2.32031 -11.3203l-154.56 -154.88c-19.8799 -19.8799 -52.4404 -19.8799 -72.3203 0
c-19.1602 19.1602 -19.7197 50.0801 -1.91992 70.0801v0.320312c0.400391 0.479492 0.799805 0.879883 1.28027 1.2793c0.200195 0.240234 0.400391 0.44043 0.639648 0.640625c0.560547 0.719727 1.2002 1.35938 1.91992 1.91992l203.2 203.52
c13.9199 13.9199 32.2402 20.7998 50.5605 20.7998z" />
    <glyph glyph-name="compass" unicode="&#xf10a;" 
d="M255.84 427.66l0.125 0.000976562c0.533203 0 1.3916 -0.0810547 1.91504 -0.180664c128.455 -1.01367 232.587 -105.146 233.601 -233.601c0.101562 -0.530273 0.18457 -1.39941 0.18457 -1.93945c0 -0.541016 -0.0830078 -1.41016 -0.18457 -1.94043
c-1.07812 -128.399 -105.186 -232.467 -233.601 -233.48c-0.530273 -0.101562 -1.39941 -0.18457 -1.93945 -0.18457c-0.541016 0 -1.41016 0.0830078 -1.94043 0.18457c-128.399 1.07812 -232.467 105.186 -233.48 233.601
c-0.101562 0.530273 -0.18457 1.39941 -0.18457 1.93945c0 0.541016 0.0830078 1.41016 0.18457 1.94043c1.07812 128.393 105.175 232.456 233.58 233.48c0.476562 0.0908203 1.25586 0.170898 1.74023 0.179688zM245.76 406.78
c-110.723 -5.17578 -199.364 -93.8174 -204.54 -204.54h9.98047l0.144531 0.000976562c5.65332 0 10.2412 -4.58789 10.2412 -10.2412s-4.58789 -10.2412 -10.2412 -10.2412l-0.144531 0.000976562h-9.98047c5.17578 -110.723 93.8174 -199.364 204.54 -204.54v9.98047
l-0.000976562 0.139648c0 5.56543 4.5166 10.1533 10.0811 10.2402c0.0439453 0.000976562 0.116211 0.000976562 0.160156 0.000976562c5.65332 0 10.2412 -4.58789 10.2412 -10.2412l-0.000976562 -0.139648v-9.98047c110.723 5.17578 199.364 93.8174 204.54 204.54
h-9.98047l-0.144531 -0.000976562c-5.65332 0 -10.2412 4.58789 -10.2412 10.2412s4.58789 10.2412 10.2412 10.2412l0.144531 -0.000976562h9.98047c-5.17578 110.723 -93.8174 199.364 -204.54 204.54v-9.98047l0.000976562 -0.144531
c0 -5.65332 -4.58789 -10.2412 -10.2412 -10.2412s-10.2412 4.58789 -10.2412 10.2412l0.000976562 0.144531v9.98047zM378.52 325.12c0.100586 0.00292969 0.262695 0.00585938 0.363281 0.00585938c5.65234 0 10.2402 -4.58789 10.2402 -10.2402
c0 -1.73535 -0.790039 -4.30957 -1.7627 -5.74609l-99.0605 -146.659c-0.613281 -0.910156 -1.85059 -2.14648 -2.75977 -2.76074l-146.68 -99.0801c-1.43457 -0.969727 -4.00488 -1.75684 -5.73633 -1.75684c-5.65332 0 -10.2412 4.58789 -10.2412 10.2412
c0 1.73145 0.787109 4.30176 1.75684 5.73633l99.0801 146.659c0.614258 0.910156 1.85059 2.14648 2.76074 2.76074l146.659 99.0801c1.3457 0.912109 3.75586 1.70117 5.37988 1.75977zM239.58 208.42l-68.3799 -101.22l101.22 68.3799z" />
    <glyph glyph-name="pdf" unicode="&#xf102;" 
d="M71.6797 427.52h227.16l141.48 -137.319v-333.72h-368.641v471.039zM92.1602 407.04v-430.08h327.68v296.96h-133.12v133.12h-194.56zM307.2 390.88v-96.4795h99.3994zM243.4 244.48c4.59961 0 9.51953 -1.68066 13 -4.7207
c3.47949 -3.04004 5.47949 -7 6.67969 -10.9199c2.36035 -7.83984 2.08008 -16.3994 0.759766 -26.2002c-0.959961 -7.08008 -5.2002 -16.4795 -7.35938 -24.5596c0.519531 -0.919922 0.439453 -1.56055 0.959961 -2.48047
c8.87988 -15.1191 20.8398 -30.3193 33.5996 -41.3193c0.839844 -0.720703 1.63965 -1 2.47949 -1.64062c6.28027 1.16016 13.8408 4.16016 19.4805 4.76074c10.6797 1.08008 19.96 1.23926 28.1201 -0.959961c4.12012 -1.12012 8.12012 -2.88086 11.5195 -6.2002
c3.36035 -3.32031 5.48047 -8.48047 5.48047 -13.3203c0 -5.95996 -3.60059 -13.7598 -9.60059 -17c-5.95996 -3.24023 -12.0791 -3.59961 -20 -3.59961c-14 0 -26.7998 6.31934 -38.8398 14.4395c-14.3994 -3.12012 -28.1201 -5.35938 -43.5195 -10.6797
c-11.4004 -3.91992 -18.5205 -8.52051 -28.5605 -12.96c-3.11914 -5 -5.63965 -11.9199 -8.7998 -16.2002c-6.28027 -8.43945 -12.5195 -15.3604 -19.5195 -20.0801s-16.6807 -7.47949 -25.0801 -3.04004c-3.95996 2.04004 -7.7998 5.2002 -9.64062 10.04
c-1.83984 4.83984 -0.879883 10.2002 0.959961 13.96c3.76074 7.56055 10.1602 12.3203 18.2402 17.6406c7.2002 4.71973 19.5205 8.7998 29.2803 13.3594c7.47949 12.6807 15.2803 24.7598 21.6396 40c5 11.96 6.60059 21.7197 9.91992 32.9199
c-6.67969 13.1602 -11.8398 26 -13.1992 37.3604c-0.880859 7.2002 -0.640625 14.1201 2.87988 20.5596c3.47949 6.48047 11.4395 10.8408 19.1201 10.8408zM242.56 224.08c-0.119141 0 -0.239258 -0.0400391 -0.319336 -0.240234
c-0.320312 -0.519531 -1.08008 -3.55957 -0.480469 -8.32031c0.120117 -1.0791 1.52051 -3.31934 1.75977 -4.51953c0.200195 4.71973 0.520508 10.04 -0.0390625 11.9199c-0.320312 1 -0.400391 0.959961 -0.44043 1.04004
c-0.160156 0.0400391 -0.360352 0.120117 -0.480469 0.120117zM248.76 152.24c-2.2002 -6.08008 -2.63965 -11.2402 -5.2002 -17.3604c-2.7998 -6.71973 -6.67969 -11.5596 -9.7998 -18.0801c2.2002 0.799805 3.48047 1.87988 5.7207 2.64062
c10.5596 3.63965 19.96 4.63965 30.4395 7.43945c-7.83984 7.7998 -14.8398 16.2803 -21.1602 25.3604z" />
    <glyph glyph-name="address-book" unicode="&#xf109;" 
d="M112.64 407.04h286.721c16.8398 0 30.7197 -13.8799 30.7197 -30.7197v-368.641c0 -16.8398 -13.8799 -30.7197 -30.7197 -30.7197h-286.721c-16.8398 0 -30.7197 13.8799 -30.7197 30.7197v40.96h20.4805v-40.96c0 -5.67969 4.55957 -10.2393 10.2393 -10.2393h286.721
c5.67969 0 10.2393 4.55957 10.2393 10.2393v368.641c0 5.67969 -4.55957 10.2393 -10.2393 10.2393h-286.721c-5.67969 0 -10.2393 -4.55957 -10.2393 -10.2393v-51.2002h10.2393c3.68066 0.0400391 7.12012 -1.87988 9 -5.08008
c1.84082 -3.2002 1.84082 -7.12012 0 -10.3203c-1.87988 -3.2002 -5.31934 -5.12012 -9 -5.08008h-40.96c-5.63965 -0.279297 -10.4395 4.12012 -10.7197 9.76074c-0.280273 5.63965 4.12012 10.4395 9.75977 10.7197h0.959961h10.2402v51.2002
c0 16.8398 13.8799 30.7197 30.7197 30.7197zM81.9199 294.4h20.4805v-30.7207h10.2393c3.68066 0.0400391 7.12012 -1.87988 9 -5.08008c1.84082 -3.19922 1.84082 -7.11914 0 -10.3193c-1.87988 -3.2002 -5.31934 -5.12012 -9 -5.08008h-40.96
c-5.63965 -0.520508 -10.6797 3.63965 -11.1992 9.28027c-0.520508 5.63965 3.63965 10.6797 9.2793 11.1992h0.959961h0.959961h10.2402v30.7207zM266.24 284.16c48.1201 0 81.9199 -33.9199 81.9199 -80c0 -40.96 -22.5205 -65.2803 -51.2002 -65.2803
c-12.2803 0 -21.3604 7.04004 -22.4004 22.4004h-1.2793c-9.2002 -15.3604 -21.4404 -22.4004 -36.7998 -22.4004c-17.4004 0 -30.7207 13.3203 -30.7207 35.8398c0 33.7998 25.7207 64.3203 64.6406 64.3203c12.2793 0 24.5195 -3 31.6797 -6.08008l-8.32031 -51.2002
c-3.08008 -18.4395 -0.839844 -26.5596 7.36035 -26.5596c13.3203 -1.04004 28.4795 16.2402 28.4795 48c0 37.8799 -23.5596 66.5596 -66.5596 66.5596c-44.04 0 -80.6396 -33.7197 -80.6396 -88c0 -46.0801 29.4395 -73.5996 70.3994 -73.5996
c15.3604 0 29.6807 2.7998 40.96 8.95996l5.12012 -15.3604c-16.3994 -8.2002 -30.4795 -10.2402 -49.9199 -10.2402c-46.0801 0 -85.1201 32.7607 -85.1201 87.04c0 56.3203 39.9199 105.601 102.4 105.601zM81.9199 232.96h20.4805v-30.7197h10.2393
c3.68066 0.0400391 7.12012 -1.87988 9 -5.08008c1.84082 -3.2002 1.84082 -7.12012 0 -10.3203c-1.87988 -3.2002 -5.31934 -5.12012 -9 -5.08008h-40.96c-5.63965 -0.279297 -10.4395 4.12012 -10.7197 9.75977c-0.280273 5.64062 4.12012 10.4404 9.75977 10.7207
h0.959961h10.2402v30.7197zM267.2 220.8c-21.5205 0 -37.7598 -20.5996 -37.7598 -44.1602c0 -11.2793 5.04004 -18.5596 16.3193 -18.5596c12.2803 0 25.4805 16.5596 27.5205 32.96l5.12012 27.5195c-2.04004 1.04004 -6.08008 2.24023 -11.2002 2.24023zM81.9199 171.52
h20.4805v-30.7197h10.2393c3.68066 0.0400391 7.12012 -1.87988 9 -5.08008c1.84082 -3.2002 1.84082 -7.12012 0 -10.3193c-1.87988 -3.2002 -5.31934 -5.12012 -9 -5.08008h-40.96c-5.63965 -0.280273 -10.4395 4.12012 -10.7197 9.75977s4.12012 10.4395 9.75977 10.7197
h0.959961h10.2402v30.7197zM81.9199 110.08h20.4805v-30.7197h10.2393c3.68066 0.0400391 7.12012 -1.87988 9 -5.08008c1.84082 -3.2002 1.84082 -7.12012 0 -10.3203c-1.87988 -3.2002 -5.31934 -5.12012 -9 -5.08008h-40.96
c-5.63965 -0.280273 -10.4395 4.12012 -10.7197 9.75977c-0.280273 5.64062 4.12012 10.4404 9.75977 10.7207h0.959961h10.2402v30.7197z" />
    <glyph glyph-name="add-new" unicode="&#xf106;" 
d="M92.1602 407.04h327.68c28.1133 0 51.2002 -23.0869 51.2002 -51.2002v-327.68c0 -28.1133 -23.0869 -51.2002 -51.2002 -51.2002h-327.68c-28.1133 0 -51.2002 23.0869 -51.2002 51.2002v327.68c0 28.1133 23.0869 51.2002 51.2002 51.2002zM92.1602 386.56
c-16.9424 0 -30.7197 -13.7773 -30.7197 -30.7197v-327.68c0 -16.9424 13.7773 -30.7197 30.7197 -30.7197h327.68c16.9424 0 30.7197 13.7773 30.7197 30.7197v327.68c0 16.9424 -13.7773 30.7197 -30.7197 30.7197h-327.68zM245.76 314.88h20.4805v-112.64h112.64
v-20.4805h-112.64v-112.64h-20.4805v112.64h-112.64v20.4805h112.64v112.64z" />
    <glyph glyph-name="work-address" unicode="&#xf108;" 
d="M256 427.52c25.3203 0 47.96 -7.47949 64.6396 -20.1592c13.8799 -10.5205 23.6406 -24.9199 26.5605 -41.2803h134.08c16.8398 0 30.7197 -13.8799 30.7197 -30.7197v-172.16v-0.959961v-175.04c0 -16.8398 -13.8799 -30.7197 -30.7197 -30.7197h-450.561
c-16.8398 0 -30.7197 13.8799 -30.7197 30.7197v174.08c-0.0800781 0.639648 -0.0800781 1.2793 0 1.91992v172.16c0 16.8398 13.8799 30.7197 30.7197 30.7197h134.08c2.91992 16.3604 12.6807 30.7598 26.5605 41.2803c16.6797 12.6797 39.3193 20.1592 64.6396 20.1592z
M256 407.04c-21.3203 0 -39.5596 -6.44043 -52.1602 -16c-9.35938 -7.12012 -15.6396 -15.5205 -18.2402 -24.96h140.801c-2.60059 9.43945 -8.88086 17.8398 -18.2402 24.96c-12.6006 9.55957 -30.8398 16 -52.1602 16zM30.7197 345.6
c-5.7998 0 -10.2393 -4.43945 -10.2393 -10.2393v-172.16c0.0791016 -0.640625 0.0791016 -1.28027 0 -1.91992c0 -5.7998 4.43945 -10.2402 10.2393 -10.2402h174.08c0 16.8398 13.8799 30.7197 30.7197 30.7197h40.9609c16.8398 0 30.7197 -13.8799 30.7197 -30.7197
h174.08c5.7998 0 10.2393 4.44043 10.2393 10.2402v0.639648c-0.0390625 0.44043 -0.0390625 0.839844 0 1.28027v172.16c0 5.7998 -4.43945 10.2393 -10.2393 10.2393h-450.561zM235.52 161.28c-5.7998 0 -10.2393 -4.44043 -10.2393 -10.2402v-8
c0.279297 -1.36035 0.279297 -2.7998 0 -4.16016v-8.32031c0 -5.7998 4.43945 -10.2393 10.2393 -10.2393h40.9609c5.7998 0 10.2393 4.43945 10.2393 10.2393v8c-0.0800781 0.760742 -0.0800781 1.48047 0 2.24023v0.959961v0.959961v8.32031
c0 5.7998 -4.43945 10.2402 -10.2393 10.2402h-40.9609zM20.4805 132.48v-145.28c0 -5.7998 4.43945 -10.2402 10.2393 -10.2402h450.561c5.7998 0 10.2393 4.44043 10.2393 10.2402v145.28c-3.23926 -1.16016 -6.63965 -1.9209 -10.2393 -1.9209h-174.08
c0 -16.8398 -13.8799 -30.7197 -30.7197 -30.7197h-40.9609c-16.8398 0 -30.7197 13.8799 -30.7197 30.7197h-174.08c-3.59961 0 -7 0.760742 -10.2393 1.9209z" />
    <glyph glyph-name="home-address" unicode="&#xf107;" 
d="M255.62 437.2c0.111328 0.00390625 0.292969 0.0078125 0.404297 0.0078125c1.93457 0 4.74609 -0.961914 6.27539 -2.14844l96.1006 -75v2.80078c0.00585938 11.8516 0 23.6992 0 23.6992c0 5.65234 4.58789 10.2402 10.2393 10.2402h40.96
c5.65234 0 10.2402 -4.58789 10.2402 -10.2402v-39.3799v-27.2598v-7.7998l77.9805 -60.8398c2.17773 -1.69824 3.94531 -5.31836 3.94531 -8.08008c0 -5.65625 -4.58984 -10.2461 -10.2461 -10.2461c-1.94336 0 -4.7666 0.970703 -6.2998 2.16602l-14.1797 11.0596v-269.22
c-0.000976562 -5.65137 -4.58789 -10.2393 -10.2402 -10.2402h-141.74c-0.457031 -0.0751953 -1.20605 -0.136719 -1.66992 -0.136719s-1.21191 0.0615234 -1.66992 0.136719h-119.54c-0.457031 -0.0751953 -1.20605 -0.136719 -1.66992 -0.136719
s-1.21191 0.0615234 -1.66992 0.136719h-141.64c-5.65234 0.000976562 -10.2393 4.58887 -10.2402 10.2402v269.22l-14.1797 -11.0596c-1.5332 -1.19531 -4.35645 -2.16602 -6.2998 -2.16602c-5.65625 0 -10.2461 4.58984 -10.2461 10.2461
c0 2.76172 1.76758 6.38184 3.94531 8.08008l235.521 183.779c1.44336 1.11914 4.09473 2.07715 5.91992 2.14062zM256 413.98l-194.56 -151.82v-274.96h122.88v194.56h143.359v-194.56h122.88v274.979l-47.2393 36.8604
c-2.14453 1.67383 -3.91016 5.23926 -3.94043 7.95996c-0.0107422 0.90625 -0.0185547 1.5625 -0.0195312 3.7998v9.12012v27.2598v29.1406h-20.4805v-13.4805c-0.00292969 -5.92969 -0.0146484 -11.8447 -0.0195312 -16.2998
c-0.00488281 -2.22754 -0.015625 -4.08691 -0.0205078 -5.40039v-1.55957v-0.480469c-0.00195312 -0.0742188 -0.015625 -0.141602 -0.0195312 -0.279297c-0.00390625 -0.0693359 -0.00488281 -0.132812 -0.0205078 -0.360352
c-0.0078125 -0.114258 -0.0595703 -0.658203 -0.0595703 -0.660156c0 -0.000976562 -6.33984 -8.17969 -6.33984 -8.17969c-1.0127 -0.40625 -2.71973 -0.735352 -3.81055 -0.735352c-1.94824 0 -4.77539 0.974609 -6.30957 2.1748zM204.8 161.28v-174.08h102.4v174.08
h-102.4zM276.48 89.5996c5.65234 0 10.2393 -4.58691 10.2393 -10.2393s-4.58691 -10.2402 -10.2393 -10.2402c-5.65332 0 -10.2402 4.58789 -10.2402 10.2402s4.58691 10.2393 10.2402 10.2393z" />
  </font>
</defs>
</svg>
